<svg xmlns="http://www.w3.org/2000/svg" width="112" height="176" viewbox="0 0 112 176">
  <path d="M57.06 56.23c-1.33 0-2.64.02-3.92.07v-9.02c0-2-1.82-3.56-3.9-3.33-1.63.2-2.86 1.5-2.86 3.1v9.68c-10.33 1-17.6 3.4-17.6 6.2v6.7c0-2.8 7.27-5.2 17.6-6.2v19.92l6.76-.63V63c1.28-.05 2.6-.07 3.92-.07 15.62 0 28.3 3 28.3 6.7v-6.7c0-3.7-12.68-6.7-28.3-6.7z"/>
  <path d="M55.6 16v6.37L25.78 39.13v3.94s.18-.1.53-.25l1.6-.64c.7-.27 1.6-.58 2.6-.9.5-.18 1.1-.35 1.7-.52 1.2-.35 2.6-.7 4-1.06l2.4-.52c1.7-.33 3.5-.64 5.4-.9 3.9-.54 8.3-.9 13.3-.9.8 0 1.6.02 2.4.04h.6l1.97.1h.3l2 .13c.98.07 1.93.16 2.85.25l.5.06c.8.08 1.5.18 2.28.27l.7.1c.8.1 1.5.22 2.28.35l.2.03 2.4.5.5.1 1.64.4.54.2c.63.2 1.24.3 1.8.5l.34.1 1.23.4c.8.2 1.58.5 2.25.7l1.9.7H85V85l-.53-.13c-7-1.44-16.68-2.35-27.35-2.35-10.68 0-20.34.9-27.36 2.4l-.54.13V42h-.76v42.9c-2.9.68-5.3 1.44-7.03 2.3-1 .5-1.8 1-2.35 1.58-.56.57-.9 1.2-.9 1.87 0 .67.33 1.3.9 1.88.55.57 1.34 1.1 2.34 1.58 2 1 4.87 1.9 8.37 2.6l3.2.6-17 59.9a.38.37 0 1 0 .7.2l16.9-60c1.07.2 2.2.4 3.33.5l-16.8 59.3a.38.37 0 0 0 .72.2L37.8 98c2.9.35 6.04.62 9.34.8l-5.2 60.82a.38.37 0 0 0 .77.05l5.2-60.83c1.3.07 2.6.1 4 .16l-5.2 60.62a.38.37 0 0 0 .8.06L52.6 99c1.48.04 2.96.06 4.48.06 1.67 0 3.3-.03 4.9-.07l3.7 60.3a.38.37 0 1 0 .75-.1l-3.65-60.3 3.62-.2 3.68 60.5a.38.37 0 0 0 .77 0l-3.68-60.5 7.07-.6 12.7 53.9a.38.37 0 1 0 .76-.2L75 98.1c1.3-.14 2.58-.3 3.78-.46L91.6 152a.38.37 0 1 0 .8-.16l-12.9-54.3c1.8-.26 3.4-.54 4.9-.86 3.5-.73 6.4-1.6 8.4-2.6 1-.48 1.8-1 2.37-1.57.6-.5.9-1.2.9-1.8 0-.6-.3-1.3-.9-1.8-.5-.5-1.3-1.1-2.3-1.6-1.75-.8-4.2-1.6-7.15-2.3h.14V42l.86.33 1.1.45.62.3v-3.95L58.6 22.43V16h-3z"/>
</svg>
