<svg xmlns="http://www.w3.org/2000/svg" width="112" height="112" viewbox="0 0 112 112">
  <g transform="translate(-303.573 -753.582)" stroke="#000">
    <path fill="none" stroke="inherit" stroke-miterlimit="10" d="M321.8 817.06c3.02.25 5.68-2 5.93-5.03.25-3.02-2-5.68-5.03-5.93"/>
    <path stroke="none" d="M346.53 769.58c-11.48.05-19.5 1.9-19.5 1.9l-.1.05s-1.37.6-2.37 1.97c-.98 1.33-1.54 3.45-.18 6.12l-4.8 65.4c0 1.65.46 3.34 1.77 4.1 1.63.93 3.96.55 5.3-.8 8.16-6.85 22.5-18.4 35.64-28.9l-.3 1.78c-.3 2-.6 4.15-.4 5.97 0 .9.2 1.75.6 2.45.4.7 1 1.25 1.8 1.5.5.16 1.03.1 1.43-.16.4-.26.64-.67.8-1.1.36-.9.46-2.04.5-3.15.05-1.1.04-2.2.1-2.8 0-.1 0-.1.04-.2.3.3.63.5 1 .6.5.1 1.1 0 1.5-.4.8-.82.95-2.4.4-5.05-.43-1.95-.55-3.6-.5-5 12.04-9.6 22-17.46 22-17.46l.14-.1c1.6.44 3.27.22 4.65-.53.4-.2.8-.5 1.2-.8.83-.75 1.5-1.75 1.83-2.92 1-3.3-.97-5.6-.97-5.6l-.05-.06c-14.65-12.2-32.5-15.86-46.6-16.5-1.76-.05-3.47-.1-5.1-.1zm.14 1.1c13.74-.03 32.47 2.56 48.16 14.17-.48-.14-1-.22-1.5-.22-1.35 0-2.57.5-3.52 1.3 0-.5-.5-.72-.9-.38-.6.58-1 1.3-1.4 2.12-.4-.7-.9-1.33-1.5-1.8-3.9-2.93-12.3-4.86-20.9-4.57-2.1.07-3.4-.14-4.2-.48-.9-.34-1.4-.8-1.9-1.4-1.1-1.16-2.3-2.8-6.3-3.65-1-.2-1.85-.3-2.65-.26-2.4.1-3.97 1.1-5.3 2-.85.6-1.63 1.1-2.53 1.2-.9.2-1.97.1-3.5-.6-5.54-2.6-11.63 0-13.35.8-1-2.1-.5-3.6.27-4.6.8-1.03 1.85-1.54 1.9-1.6.1 0 8.04-1.8 19.35-1.83zm3.2 5.9c.7 0 1.5.06 2.43.26 3.76.8 4.57 2.1 5.73 3.34.57.62 1.25 1.25 2.32 1.66 1.08.42 2.52.62 4.7.55 8.43-.3 16.8 1.7 20.26 4.3.8.5 1.4 1.5 1.8 2.5-.1 1.3.2 2.7.8 3.8L370 808c-.8.93-2.3 4.47-1 10.78.55 2.54.2 3.77-.1 4.1-.16.14-.3.2-.52.13-.23 0-.54-.2-.83-.4-.15-.12-.3-.26-.6-.3-.28 0-.5.2-.63.38-.2.33-.2.63-.24 1-.07.8-.05 1.87-.1 2.94-.04 1.05-.16 2.1-.4 2.8-.14.3-.3.5-.42.56-.13.1-.26.14-.56.05-.54-.14-.9-.46-1.17-.96-.3-.5-.45-1.2-.52-2-.1-1.64.1-3.74.4-5.72.3-1.93.6-3.8.57-5.04-.03-.63-.1-1.22-.62-1.6-.24-.15-.6-.2-.9-.13-.3.04-.6.2-.9.4l-37.95 31.5c-1.53.8-2.55.2-2.55-1.34l4.8-65.2c.37-.2 6.9-3.6 12.6-.92 1.67.8 3 .98 4.16.77 1.15-.25 2.06-.8 2.94-1.4 1.3-.86 2.6-1.74 4.7-1.8zm43.45 8.92c2.53 0 4.57 2.06 4.57 4.62 0 2.55-2.1 4.6-4.6 4.6-2.6 0-4.6-2.05-4.6-4.6 0-2.56 2-4.62 4.6-4.62z"/>
    <circle cx="349.57" cy="803.58" r="5.5" fill="none" stroke="inherit" stroke-miterlimit="10"/>
    <circle cx="339.57" cy="789.58" r="3.5" fill="none" stroke="inherit" stroke-miterlimit="10"/>
    <circle cx="371.57" cy="797.58" r="3.5" fill="none" stroke="inherit" stroke-miterlimit="10"/>
    <circle cx="361.57" cy="839.58" r="1.5" fill="none" stroke="inherit" stroke-miterlimit="10"/>
    <circle cx="331.57" cy="829.58" r="3.41" fill="none" stroke="inherit" stroke-width="1.17" stroke-miterlimit="10"/>
  </g>
</svg>
