<svg xmlns="http://www.w3.org/2000/svg" viewBox="0 0 64 144">
  <path fill="none" stroke="#000" stroke-width="1" stroke-miterlimit="10" d="M47.4 36.6C46.8 47 34.7 59 30.2 68.6c0 0 0 1-.5-1-1.6-6.4-13.5-24.4-13-32.8.5-10.5 7.8-18.6 16.3-18 8.5.4 15 9.3 14.4 19.8z"/>
  <path fill="none" stroke="#000" stroke-width="1" stroke-miterlimit="10" d="M38.7 36c-.6 10.5-8.5 32.6-8.5 32.6s-5.4-22.8-5-33.3c.7-10.5 4-19 7.8-18.6 3.7.2 6.2 9 5.7 19.4zM33 16.7l-2.8 52"/>
  <path fill="none" stroke="#000" d="M31.5 73h-3l.4-8 3 .2-.7 8z"/>
  <path d="M31.5 73h-3l.4-8 3 .2-.7 8z"/>
  <path fill="none" stroke="#000" stroke-width="1" stroke-miterlimit="10" d="M27 127.4c-2-.2-3.6-2-3.4-4.2l2.6-50.4 7.6.4-2.7 50.4c0 2.2-1.6 4-4 3.8zm3.5-51l-2 45"/>
</svg>
