<svg xmlns="http://www.w3.org/2000/svg" viewBox="0 0 24.307389 32">
  <path fill="#fff" d="M12.1524475 3.4734643c-3.8349394 0-7.5271756 1.2058315-10.3317222 3.3358043 2.332592 2.5376822 3.7257623 5.7295517 3.7257623 9.1889043 0 6.90635 6.8337632 12.528571 15.235048 12.528571 1.2008896 0 2.3784532-.130349 3.5249815-.355203V8.457865c-2.782307-3.026933-7.19484-4.984401-12.154069-4.984401zM.0022525 8.442421v19.7291207c2.5302692-.4966642 4.8923547-1.512848 6.8221792-2.980602-2.332592-2.540153-3.7334716-5.7246117-3.7334716-9.1889062 0-2.834198-1.15147-5.4568203-3.088707-7.5596125z"/>
  <path fill="#231f20" d="M24.307387 28.1706442c-1.1465284.227329-2.3251793.35829-3.5260688.35829-8.4012848 0-15.235977-5.6214478-15.235977-12.527798 0-3.4593527-1.391154-6.654312-3.723746-9.194465 2.8045465-2.129973 6.49617-3.3358044 10.3311093-3.3358044 4.959229 0 9.3723745 1.9594762 12.1546824 4.9864097v-3.365456c-.003954.004942-.011861.007512-.017791.0124538C21.119346 2.564121 16.849517.9999996 12.15221.9999996c-4.514455 0-8.890536 1.4899925-12.1522114 4.1042747v3.3407462C1.937236 10.5478127 3.091177 13.1645658 3.091177 16.001235c0 3.4642942 1.398567 6.6518405 3.731159 9.189523-1.9298246 1.4702246-4.2920682 2.483321-6.8223375 2.982456v2.5203853C3.22708 30.135161 6.239188 28.82802 8.643438 26.8957243c3.1702495 2.5401532 7.440079 4.1042748 12.1373856 4.1042748 1.1934766 0 2.3721275-.111193 3.5260687-.311341v-2.517915z"/>
</svg>
