<svg xmlns="http://www.w3.org/2000/svg" viewBox="0 0 160 208"><defs><clipPath id="a"><path d="M357.044 269.5h48.01v63.762h-48.01V269.5z"/></clipPath><clipPath id="b"><path d="M210.24 72.72h504v360h-504v-360z"/></clipPath><clipPath id="c"><path d="M357.115 304.89h11.205v-16.705h-11.205v16.704z"/></clipPath><clipPath id="d"><path d="M357.115 288.185h11.205v16.704h-11.205v-16.71z"/></clipPath><clipPath id="e"><path d="M393.223 305.797h11.595v-16.97h-11.595v16.97z"/></clipPath><clipPath id="f"><path d="M393.223 288.827h11.595v16.97h-11.595v-16.97z"/></clipPath></defs><path fill="#4cc3c8" stroke="#231f20" stroke-width=".779" stroke-miterlimit="10" d="M0 0c.812-.812 4.366-1.42 4.366-1.42S.812-2.03 0-2.843c-.812-.81-1.42-4.366-1.42-4.366s-.61 3.56-1.422 4.37c-.81.81-4.367 1.42-4.367 1.42S-3.65-.81-2.84 0c.812.812 1.42 4.367 1.42 4.367S-.81.812 0 0z" stroke-linecap="round" stroke-linejoin="round" transform="matrix(1.19788 0 0 -1.2078 195.858 129.26)"/><path fill="#4cc3c8" stroke="#231f20" stroke-width=".779" stroke-miterlimit="10" d="M0 0c1.214-1.214 6.528-2.125 6.528-2.125S1.214-3.035 0-4.25c-1.214-1.212-2.125-6.527-2.125-6.527s-.91 5.315-2.124 6.528c-1.21 1.22-6.52 2.13-6.52 2.13s5.31.91 6.53 2.13c1.21 1.21 2.12 6.52 2.12 6.52S-1.21 1.22 0 0z" stroke-linecap="round" stroke-linejoin="round" transform="matrix(1.19788 0 0 -1.2078 52.455 117.89)"/><path fill="#dc4faf" stroke="#000" stroke-width=".389" d="M0 0c-1.01 4.99-.445 6.697-6.406 11.228-.648 1.007-1.29 2.04-2.19 2.83-1.626 1.426-5.86 2.146-8.01 1.92-2.15-.228-2.232-1.337-4.083-2.452-1.36-.822-2.86-2.032-3.68-3.398-.51-.843-5.6-3.75-6.02-4.643-2.74-5.278-2.29-7.204-1.29-10.09" transform="scale(1.54188 1.67543) rotate(45 13.37 153.322)"/><path fill="#dc4faf" d="M133.86 23.224l-3.883 8.547-.752 2.71.062 5.87 27.783 17.46 8.126 3.96 3.86-1.33s2.582-1.09 3.37-1.58c1.996-1.26 4.43-4.85 4.84-6.93.448-2.26-5.016-7.71-5.016-7.71l-14.306-12.14-17.96-11.4-6.123 2.57z"/><path fill="#f2acda" d="M130.904 38.847c-1.533-1.04-1.9-2.788-4.036-3.518-2.137-.73-5.35-.3-6.982 1.27-1.498 1.44-2.082 3.59-2.365 5.66-.04.34-.08.7.02 1.03.11.36.37.65.66.89.82.68 1.85 1.05 2.76 1.61.84.52 1.57 1.21 2.45 1.67.92.48 1.96.68 2.88 1.15 1.16.6 2.05 1.6 2.91 2.58l.71.8c.42.47.87.96 1.46 1.16.64.2 1.34.03 1.98-.17.34-.11.69-.23.97-.46.6-.48.77-1.32.81-2.09.14-2.44-.67-4.91-2.14-6.86-.4-.54-.84-1.03-1.29-1.53"/><path fill="#dc4faf" d="M119.998 36.297c-.08-1.68-.826-3.325-1.58-4.868-2.936-6.02-6.17-11.88-9.686-17.57-.758-1.23-1.545-2.47-2.624-3.42-1.947-1.72-4.69-2.34-7.264-2.07-2.576.27-5.004 1.36-7.22 2.7-1.64.99-3.228 2.18-4.213 3.83-.6 1.02-.95 2.17-1.45 3.24-1.74 3.77-5.24 6.58-6.52 10.53-.45 1.39-.6 2.87-.98 4.28-.45 1.71-1.23 3.32-1.89 4.96-2.07 5.11-3.06 10.94-1.28 16.17 1.78 5.22 6.89 9.53 12.35 9.04 1.91-.17 3.73-.88 5.62-1.23 1.89-.35 4.01-.28 5.5.93L110.69 53s7.17-7.216 8.1-10.38c.21-.705.265-2.378.656-3.304.517-1.23.606-1.99.555-3.02"/><path fill="#f39cd2" d="M144.075 125.176c.512-.51.874-.91 1.563-.705.69.21 1.378.54 2.093.46 1.41-.15 2.18-1.73 3.37-2.51 1.09-.71 3.62.76 5.23.4l-.21-.06c1.81.54 3.45.75 4.27.6l-.07.15c.44.24.91.42 1.4.52 3.31.71 8.16-.99 7.22-.66-1.38.01-3.33-1.15-4.51-1.89-1.5-2.7 2.87-4.69 3.81-5.59.74-.7 1.44-1.48 1.9-2.4.39-.77.61-1.64.69-2.51.19-1.88-.22-3.82-1.15-5.46-.45-.79-.97-1.51-1.54-2.17v.01c-2.79-7.44 4.74-1.25 6.75-3.02-4.54.43-3.44-5.07-4.47-5.27-.84-.5-3.25-5.57.63-4.8.74.15 1.49-.39 2.02-.93.44-.45.23-1.96.5-2.39.21-.33.83-1.02 1.066-1.35.474-.67.835-1.42 1.063-2.21.49-1.7-.15-4.94-1.34-6.25h.006c-.22-1.79-1.28-3.48-2.84-4.39l.04.01c-.7-.52-1.43-1.09-1.74-1.91-.238-.63-.194-1.34-.435-1.97-.42-1.09-1.57-1.68-2.57-2.29-.302-.19-.61-.4-.82-.69-.26-.362-.346-.83-.35-1.28-.01-.91.3-1.79.46-2.683.14-.73.246-1.89-.262-2.515-.44-.55-1.523-.394-2.18-.48-1.902-.25-3.793-.73-5.54-1.56-2.42-1.15-4.56-3.036-5.7-5.48l-.302-1.067c-.164-.836-.2-1.715-.563-2.48-.467-.97-1.42-1.627-2.437-1.96-1.014-.33-2.095-.38-3.16-.41-.92-.03-1.876-.054-2.715-.44-.84-.39-2.373-2.134-2.28-3.06l-.267-.073c-3.65-.497-7.58-1.55-10.43-4.1"/><g transform="matrix(1.19788 0 0 -1.2078 -330.712 454.422)" clip-path="url(#a)"><path fill="#fff" d="M385.195 332.165l1.13.01c2.25.1 4.54.2 6.71-.42 3.89-1.09 6.87-4.38 8.56-8.04 1.7-3.67 2.3-7.74 2.87-11.74.66-4.67.91-8.96-.03-13.59-.91-4.51.06-9.33-1.12-13.95-.35-1.38-.84-2.75-1.69-3.89-.97-1.29-2.34-2.21-3.68-3.09-1.78-1.18-3.56-2.36-5.34-3.53-3.65-2.42-7.75-4.95-12.1-4.33-1.72.24-3.34.98-4.93 1.71-3.58 1.64-7.16 3.28-10.75 4.93-1.03.47-2.1.97-2.83 1.85-.6.73-.9 1.65-1.18 2.55-1.37 4.45-2.4 9.01-3.09 13.61l-.2.4s-1.52 10.92.84 13.24c2.7 2.67 7.82 5.95 9.77 8.11 2.7 2.99 2.58 4.25 3.68 11.98.24 1.68 1.11 3.6 3.43 4.27 3.04.89 7.09 1.49 8.84.52.38-.22.83-.48 1.11-.6"/></g><g transform="matrix(1.19788 0 0 -1.2078 -330.712 454.422)" clip-path="url(#b)"><path fill="#f39cd2" d="M379.782 331.137c-.107.31-.205.68-.004.937.19.245.565.253.856.147.29-.1.544-.3.836-.4.5-.17 1.092-.03 1.465.35.102.1.187.22.295.31.395.35 1.034.3 1.446-.02.123-.09.232-.21.377-.27.12-.05.252-.05.38-.06l.037.1c.407 1.84-.23 3.78-1.227 5.38-.58.93-1.294 1.8-2.192 2.42-1.49 1.05-3.42 1.37-5.23 1.12-1.8-.25-3.5-1.03-5.03-2.03-.6-.38-1.18-.81-1.59-1.4-1.17-1.67-.72-4.29-2.31-5.56-.68-.54-1.59-.69-2.44-.89-.95-.22-1.89-.53-2.79-.92-.63-.27-1.25-.59-1.79-1.03-1.36-1.1-2.14-3.31-2.31-5.08-1.25 1-3.01 1.06-4.59.77-1.57-.29-3.09-.88-4.69-1.02-1.96-.17-3.86.39-5.52 1.43l.02.03c-2.69.97-3.65-2.44-2.49-4.51.81-1.44-2.84-.03-2.58-1.98.11-.81.66-1.4 1.4-1.76-.3-1.12-.64-2.35.31-3 .96-.65 2.17-.83 3.33-.82.12 0 .24.01.36.01l.01-.1c-.23-.61-.04-1.32.336-1.86.373-.54.8-.93 1.326-1.32-.763.19-1.59-.03-2.24-.475-.65-.44-1.143-1.083-1.53-1.77-1.553-2.75-1.475-6.292-.003-9.09.305-.58.75-1.19 1.4-1.27-2.104-5.23 2.89-7.583 4.65-7.656-.97-.55-2.98-2.33-4.093-2.198.57-1.08 2.64-.23 3.858-.19l-1.89-1.45c-.63-.48-1.275-.965-2.024-1.22-.75-.25-1.637-.235-2.27.24.686-1.812 3.448-2.02 5.384-1.544l.03-.155c.04-.93 1.43-2.47 2.24-2.93 1.5-.85 1.75-1.002 3.46-1.27.21-.44-1.91-.542-1.8-3.074.03-.75.03-1.54-.27-2.23-.36-.85-1.02-1.72-1.92-1.9 1.154-.04 2.182.74 3.34.83 1.65-.1 4.37-.52 5.53.66.34.18 2.98 1.07 3.36 1.13.81.12 1.59-.34 2.25-.82.81-.59 1.48.12 2.19-.6.05.02.19-1.4.203-1.45 0 0-.2 3.63-.858 4.6 0 0-2.383.9-3.17 2.707-2.55 5.855-3.896 15.318-3.896 15.318 2.68-4.64 4.46-4.012 4.46-4.012-3.502 1.135-6.754 11.717-4.404 16.714.46.98 1.69 2.215 2.55 2.87 3.42 2.57 7.54 4.654 9.43 8.49 1.662 3.38 1.22 7.447 2.52 10.98.282.777.66 1.537 1.27 2.09.81.75 1.97 1.058 3.07.958 1.1-.1 2.14-.58 3.03-1.22"/><path fill="#fff" d="M448.69 239.94c-3.5 6.243-16.99 8.794-21.03 9.706l-2.323.52c-.712-2.667-1.422-4.792-1.522-7.55-.39-10.822 1.51-21.39 3.632-32.01.366-1.832 3.993-15.188 2.585-19.073 0 0 25 37.094 18.658 48.407m-135.122-2.5c3.855 7.875 17.526 10.13 21.567 11.042l2.32.52c.714-2.667 1.424-4.792 1.523-7.55.39-10.823 1.7-21.26-.423-31.88-.366-1.83-5.198-17.844-3.79-21.73l-2.65-15.792c-7.42 5.37-22.88 19.146-22.88 28.517 0 8.097 1.823 31.748 4.333 36.873"/><path fill="#ead60a" d="M415.656 252.414c0-23.91-14.56-44.484-34.4-44.484-19.74 0-35.76 19.19-35.92 42.935l3.522.957c.08-22.704 14.613-41.078 32.53-41.078 17.965 0 31.164 19.693 31.164 42.485l3.104-.82z"/></g><path fill="#8d198f" d="M134.96 111.465c-.147-.03-.295-.068-.438-.114-1.042-.33-1.967-.95-2.953-1.42-.99-.47-2.12-.81-3.17-.51-.55.16-1.04.48-1.58.68-.54.21-1.17.29-1.66-.01-1.01-.63-2.4-.89-3.5-.41-.57.25-1.01.72-1.48 1.11-1.28 1.08-2.92 1.7-4.58 1.75 2.34-.33 0 0 0 0 1.26 0 5.82 3.17 8.57 3.28 1.95.08 3.76.07 5.48-.64.73-.3 1.42-.7 2.11-1.1 1.46-.84 3.11-1.83 4.57-2.68l-1.4.08z"/><path fill="#fff" d="M163.475 148.557c-6.325-1.746-11.983-3.972-13.98-5.977-.84-.844-1.566-1.89-2.086-3.057-2.72-6.107-4.25-13.072-2.6-19.676l-38.47.947c1.65 6.604 1.03 13.937-1.69 20.042-.52 1.17-1.25 2.213-2.09 3.057-2.15 2.155-8.51 4.528-15.39 6.364l-.01-.244c.09 27.422 17.5 49.614 38.96 49.614 21.52 0 37.33-23.787 37.33-51.315v.245z"/><path fill="none" stroke="#231f20" stroke-width=".52" stroke-miterlimit="10" d="M0 0c2.25.1 4.54.2 6.71-.42 3.89-1.09 6.87-4.38 8.56-8.04 1.7-3.67 2.3-7.74 2.87-11.74.66-4.67.91-8.96-.03-13.59-.91-4.51.06-9.33-1.12-13.95-.35-1.38-.84-2.75-1.69-3.89-.97-1.29-2.34-2.21-3.68-3.09-1.78-1.18-3.56-2.36-5.34-3.53-3.65-2.42-7.75-4.95-12.1-4.33-1.72.24-3.34.98-4.93 1.71-3.58 1.64-7.16 3.28-10.75 4.93-1.03.47-2.1.97-2.83 1.85-.6.73-.9 1.65-1.18 2.55-1.37 4.45-2.4 9.01-3.09 13.61" transform="matrix(1.19788 0 0 -1.2078 132.06 53.222)"/><path fill="none" stroke="#231f20" stroke-width=".52" stroke-miterlimit="10" d="M0 0l1.44 2.008C2.994 4.18 4.12 6.625 4.582 9.226" transform="matrix(1.19788 0 0 -1.2078 148.445 103.752)"/><path fill="none" stroke="#231f20" stroke-width=".52" stroke-miterlimit="10" d="M0 0c.176-2.532-.104-5.32-.934-7.717" transform="matrix(1.19788 0 0 -1.2078 122.175 84.392)"/><path fill="none" stroke="#231f20" stroke-width=".52" stroke-miterlimit="10" d="M0 0c0-.955-.536-1.738-1.404-2.333-.65-.447-.938-.828-2.054-.875H-4c-1.116.047-1.404.428-2.054.875C-6.922-1.738-7.458-.955-7.458 0" transform="matrix(1.19788 0 0 -1.2078 129.552 98.848)"/><path fill="none" stroke="#231f20" stroke-width=".52" stroke-miterlimit="10" d="M0 0c-.452.273-1.003.38-1.524.294C-1.67.27-1.818.23-1.936.14c-.124-.1-.202-.24-.302-.363-.435-.524-1.284-.56-1.858-.192-.438.28-.75.788-.715 1.308.03.52.46 1.01.98 1.04" transform="matrix(1.19788 0 0 -1.2078 123.105 102.222)"/><path fill="none" stroke="#231f20" stroke-width=".52" stroke-miterlimit="10" d="M0 0c.452.273 1.003.38 1.525.294.146-.024.293-.065.41-.155.126-.1.203-.24.303-.37.435-.53 1.284-.56 1.858-.19.44.28.75.79.715 1.31-.03.52-.46 1.01-.98 1.04" transform="matrix(1.19788 0 0 -1.2078 127.112 102.222)"/><path fill="none" stroke="#231f20" stroke-width=".52" stroke-miterlimit="10" d="M0 0c-.12-.492-.24-.983-.362-1.475-.108-.436-.137-.897.055-1.302.38-.8 1.526-.675 1.745.38.015.07-.257 1.29-.43 1.81-.07.218-.15.456-.066.67" transform="matrix(1.19788 0 0 -1.2078 124.998 104.24)"/><path fill="none" stroke="#231f20" stroke-width=".52" stroke-miterlimit="10" d="M0 0c1.05 0 4.86-2.624 7.16-2.716 1.624-.065 3.138-.055 4.575.528.612.25 1.187.58 1.758.91C14.71-.572 16.09.245 17.308.95" transform="matrix(1.19788 0 0 -1.2078 115.628 112.53)"/><path fill="none" stroke="#231f20" stroke-width=".52" stroke-miterlimit="10" d="M0 0c-.562-2.647-2.135-5.09-4.552-6.307-1.654-.833-3.565-.955-5.416-1-1.748-.042-3.594-.004-5.098.886-1.78 1.05-2.72 3.07-3.434 5.01-.51 1.38-.872 2.87-1.26 4.29 2.072 1.88 5.02 2.47 7.818 2.48.44 0 .88-.01 1.32-.04C-9.097 5.23-7.58 5-6.105 4.6c1.73-.46 3.495-1 4.955-2.04.946-.675 1.1-1.205 1.1-1.205-.28.884-6.87 4.11-12.987 3.467-2.116-.224-4.01-.99-5.267-2.708-.22-.303-.42-.648-.42-1.023.003-.93.178-2.35.5-3.23" stroke-linecap="round" stroke-linejoin="round" transform="matrix(1.19788 0 0 -1.2078 122.235 86.04)"/><path fill="none" stroke="#231f20" stroke-width=".52" stroke-miterlimit="10" d="M0 0c-.835.575-1.704 1.164-2.702 1.342-.442.08-.894.074-1.342.07-2.45-.03-4.828-.006-7.06-1.02" stroke-linecap="round" stroke-linejoin="round" transform="matrix(1.19788 0 0 -1.2078 118.316 86.18)"/><path fill="none" stroke="#231f20" stroke-width=".52" stroke-miterlimit="10" d="M0 0c1.153.863 2.572 1.686 3.994 1.918.86.14 1.756.07 2.584-.204C7.718 1.338 8.698.6 9.652-.126" stroke-linecap="round" stroke-linejoin="round" transform="matrix(1.19788 0 0 -1.2078 105.755 87.21)"/><path fill="none" stroke="#231f20" stroke-width=".52" stroke-miterlimit="10" d="M0 0c-.65.264-1.423.202-2.022-.162-.166-.1-.324-.224-.513-.26" stroke-linecap="round" stroke-linejoin="round" transform="matrix(1.19788 0 0 -1.2078 117.716 88.392)"/><path fill="none" stroke="#231f20" stroke-width=".52" stroke-miterlimit="10" d="M0 0c-1.67.054-3.318.63-4.657 1.628" stroke-linecap="round" stroke-linejoin="round" transform="matrix(1.19788 0 0 -1.2078 111.334 89.177)"/><path fill="#231f20" d="M114.772 85.707c.15.766-.083 1.76-.664 2.28-.58.517-1.41.722-2.172.578-.783-.147-1.5-.664-1.854-1.383-.355-.72.02-1.618.458-2.288 1.31-.15 2.638.066 3.86.56.13.053.26.172.372.253"/><path fill="none" stroke="#231f20" stroke-width=".52" stroke-miterlimit="10" d="M0 0c.125-.635-.07-1.458-.554-1.887-.485-.43-1.177-.6-1.813-.48-.654.122-1.252.55-1.548 1.145-.296.596.017 1.34.382 1.895C-2.44.798-1.33.618-.31.208-.2.165-.093.068 0 0z" stroke-linecap="round" stroke-linejoin="round" transform="matrix(1.19788 0 0 -1.2078 114.772 85.707)"/><path fill="#231f20" d="M140.21 84.455c.253.74.064 1.602-.442 2.195-.504.595-1.298.91-2.073.875-.796-.04-1.574-.452-2.024-1.116-.44-.67-.53-1.57-.19-2.3 1.15-.34 2.45-.27 3.64-.12.41.05 1.1.45 1.1.45"/><path fill="none" stroke="#231f20" stroke-width=".52" stroke-miterlimit="10" d="M0 0c.21-.612.052-1.327-.37-1.818-.42-.492-1.084-.754-1.73-.724-.665.032-1.315.374-1.69.924-.374.55-.45 1.3-.164 1.9.96.28 2.046.22 3.038.095C-.578.335 0 0 0 0z" stroke-linecap="round" stroke-linejoin="round" transform="matrix(1.19788 0 0 -1.2078 140.21 84.455)"/><path fill="none" stroke="#231f20" stroke-width=".52" stroke-miterlimit="10" d="M0 0c.664-.17 1.354-.245 2.04-.218" stroke-linecap="round" stroke-linejoin="round" transform="matrix(1.19788 0 0 -1.2078 107.943 90.482)"/><path fill="none" stroke="#231f20" stroke-width=".52" stroke-miterlimit="10" d="M0 0c-.262.252-.616.39-.975.45-.625.105-1.15-.055-.683.705.277.452.632.866 1.02 1.224.77.7 1.724 1.18 2.747 1.39 2.17.43 4.39-.34 6.47-1.12" stroke-linecap="round" stroke-linejoin="round" transform="matrix(1.19788 0 0 -1.2078 134.166 87.715)"/><path fill="none" stroke="#231f20" stroke-width=".52" stroke-miterlimit="10" d="M0 0c.64-.064 1.295-.093 1.922.055.897.21 1.67.767 2.414 1.31l.56.41" stroke-linecap="round" stroke-linejoin="round" transform="matrix(1.19788 0 0 -1.2078 136.537 88.542)"/><path fill="none" stroke="#231f20" stroke-width=".52" stroke-miterlimit="10" d="M0 0c-1.258.724-2.595 1.365-4.03 1.574-1.438.21-3.094-.206-4.205-1.14" stroke-linecap="round" stroke-linejoin="round" transform="matrix(1.19788 0 0 -1.2078 142.964 85.664)"/><path fill="none" stroke="#231f20" stroke-width=".52" stroke-miterlimit="10" d="M0 0c-.286.257-1.997 1.262-3.664-.215l-.014.91c1.68 1.49 3.404.477 3.693.218 0 0-.033-.924 0-1.23.282-2.69 2.134-5.09 4.55-6.308 1.655-.832 3.566-.954 5.417-1 1.748-.04 3.593-.003 5.1.887 1.777 1.05 2.718 3.07 3.432 5.01.51 1.387.873 2.87 1.26 4.297-2.07 1.88-5.02 2.47-7.817 2.48-.44 0-.882-.01-1.32-.04-1.527-.09-3.043-.32-4.518-.72-1.73-.47-3.5-1.01-4.96-2.04C.22 1.58.06 1.04.06 1.04c.28.885 6.87 4.112 12.99 3.47 2.116-.225 4.01-.99 5.265-2.708.222-.306.42-.65.42-1.026-.002-.933-.102-2.17-.424-3.045" stroke-linecap="round" stroke-linejoin="round" transform="matrix(1.19788 0 0 -1.2078 126.605 85.65)"/><path fill="#231f20" d="M149.412 86.057c1.332-.377 3.68-.96 5.062-1.042 0 0 .02-3.842-.54-4.728 0 0-2.682.46-5.914.637m-15.073-.066c-.74-.06-1.502-.126-2.166-.464-.24-.128-.5-.32-.55-.598-.07-.406.36-.854.77-.833 1.33.064 2.6-.476 3.85-.932 1.76-.64 3.57-1.12 5.42-1.46.5-.09 1.01-.16 1.52-.16 2.15.01 4 1.44 5.68 2.79-1.94-.67-4.13-1.38-6.17-1.3-2.4.1-4.62 1.25-6.76 2.37M117.9 81.3c-.624-.658-1.28-1.31-2.096-1.698-.53-.25-1.104-.373-1.675-.496-.59-.127-1.17-.252-1.75-.38-.64-.14-1.28-.276-1.93-.353-2.22-.263-4.51.214-6.44 1.34"/><path fill="none" stroke="#231f20" stroke-width=".52" stroke-miterlimit="10" d="M0 0c-.896.643-1.937 1.118-3.035 1.218-1.1.1-2.258-.206-3.07-.954-.604-.557-.983-1.317-1.266-2.09-1.31-3.537-.86-7.6-2.53-10.98-1.89-3.838-6.01-5.92-9.43-8.496-.87-.65-2.09-1.89-2.55-2.867-2.35-4.99.9-15.57 4.4-16.71" stroke-linecap="round" stroke-linejoin="round" transform="matrix(1.19788 0 0 -1.2078 123.996 54.49)"/><path fill="none" stroke="#231f20" stroke-width=".52" stroke-miterlimit="10" d="M0 0c-.786.01-2.944.204-5.777 6.766" stroke-linecap="round" stroke-linejoin="round" transform="matrix(1.19788 0 0 -1.2078 103.074 103.87)"/><path fill="none" stroke="#231f20" stroke-width=".52" stroke-miterlimit="10" d="M0 0c-.812 1.175-2.44 1.467-3.858 1.317-2.5-.264-4.866-1.625-6.35-3.653.602.82.688 2.387.662 3.35-.024.896-.124 1.79-.298 2.67" stroke-linecap="round" stroke-linejoin="round" transform="matrix(1.19788 0 0 -1.2078 144.32 50.416)"/><path fill="none" stroke="#231f20" stroke-width=".52" stroke-miterlimit="10" d="M0 0c.812 1.238 1.676 2.524 2.98 3.226.725.39 1.542.574 2.348.752" stroke-linecap="round" stroke-linejoin="round" transform="matrix(1.19788 0 0 -1.2078 133.603 50.555)"/><path fill="none" stroke="#231f20" stroke-width=".52" stroke-miterlimit="10" d="M0 0c.407 1.843-.23 3.78-1.227 5.38-.58.932-1.294 1.795-2.193 2.424C-4.915 8.85-6.843 9.17-8.65 8.917c-1.807-.25-3.506-1.036-5.038-2.03-.596-.387-1.183-.82-1.593-1.402-1.18-1.67-.72-4.293-2.32-5.565-.69-.544-1.59-.69-2.45-.89-.96-.222-1.9-.532-2.8-.924-.64-.275-1.26-.593-1.79-1.03-1.64-1.332-2.2-3.59-2.2-5.7-.01-4.14 3.7-3.992 4.61-3.644" stroke-linecap="round" stroke-linejoin="round" transform="matrix(1.19788 0 0 -1.2078 131.007 53.188)"/><path fill="none" stroke="#231f20" stroke-width=".52" stroke-miterlimit="10" d="M0 0c-.515 1.41-1.742 2.427-2.978 3.28-.972.672-2.003 1.296-3.15 1.586-1.145.29-2.432.21-3.412-.45-.76-.512-1.27-1.312-1.715-2.11-.446-.8-.862-1.633-1.504-2.285-.64-.65-1.57-1.1-2.46-.91" stroke-linecap="round" stroke-linejoin="round" transform="matrix(1.19788 0 0 -1.2078 127.91 53.206)"/><path fill="none" stroke="#231f20" stroke-width=".52" stroke-miterlimit="10" d="M0 0c-.41-1.557-.56-3.306.245-4.7.45-.778 1.742-1.574 2.616-1.37" stroke-linecap="round" stroke-linejoin="round" transform="matrix(1.19788 0 0 -1.2078 100.97 60.675)"/><path fill="none" stroke="#231f20" stroke-width=".52" stroke-miterlimit="10" d="M0 0c.102-2.22.187-4.528-.695-6.566-1.072-2.474-3.398-4.153-5.724-5.516-1-.587-2.03-1.144-2.92-1.888-1.81-1.507-2.96-2.778-3.12-5.127" stroke-linecap="round" stroke-linejoin="round" transform="matrix(1.19788 0 0 -1.2078 109.034 59.337)"/><path fill="none" stroke="#231f20" stroke-width=".52" stroke-miterlimit="10" d="M0 0c-1.615-3.06-4.596-5.138-7.577-6.896C-8.53-7.46-9.52-8.02-10.23-8.87c-1.096-1.31-1.365-3.258-.666-4.817" stroke-linecap="round" stroke-linejoin="round" transform="matrix(1.19788 0 0 -1.2078 105.323 72.675)"/><path fill="none" stroke="#231f20" stroke-width=".52" stroke-miterlimit="10" d="M0 0c0 2.262-1.697 3.658-2.953 4.678-.755.613-1.52 1.214-2.297 1.8-1.52 1.152-4.216 3.232-5.17 2.07-.39-.473.08-1.18.574-1.543 1.53-1.12 3.557-1.214 5.34-1.856 1.29-.47 2.472-1.24 3.42-2.23" stroke-linecap="round" stroke-linejoin="round" transform="matrix(1.19788 0 0 -1.2078 119.006 42.06)"/><path fill="none" stroke="#231f20" stroke-width=".52" stroke-miterlimit="10" d="M0 0c-.26.043-.535.074-.78-.02-.247-.096-.45-.357-.388-.613.05-.216.258-.353.453-.456.877-.46 1.855-.69 2.822-.91.898-.2 4.198-.92 4.198-.92-.482.65-2.133 1.48-2.728 1.75C2.437-.63 1.245-.2 0 0z" stroke-linecap="round" stroke-linejoin="round" transform="matrix(1.19788 0 0 -1.2078 110.52 37.857)"/><path fill="none" stroke="#231f20" stroke-width=".52" stroke-miterlimit="10" d="M0 0c.146-.855-.035-1.762-.495-2.497-.067-.107-.14-.212-.177-.334-.033-.11-.032-.23-.04-.35-.058-.85.023-1.59-.468-2.29" stroke-linecap="round" stroke-linejoin="round" transform="matrix(1.19788 0 0 -1.2078 120.036 36.302)"/><path fill="#fff" d="M94.602 34.88c0 1.916-1.542 3.47-3.444 3.47s-3.444-1.554-3.444-3.47c0-1.92 1.542-3.474 3.444-3.474s3.444 1.555 3.444 3.473"/><path fill="none" stroke="#231f20" stroke-width=".52" stroke-miterlimit="10" d="M0 0c0-1.587-1.287-2.875-2.875-2.875S-5.75-1.587-5.75 0c0 1.588 1.287 2.875 2.875 2.875S0 1.588 0 0z" stroke-linecap="round" stroke-linejoin="round" transform="matrix(1.19788 0 0 -1.2078 94.602 34.88)"/><path fill="#fff" d="M102.32 47.137c0 1.918-1.543 3.472-3.445 3.472s-3.444-1.56-3.444-3.48 1.55-3.48 3.45-3.48 3.45 1.55 3.45 3.47"/><path fill="none" stroke="#231f20" stroke-width=".52" stroke-miterlimit="10" d="M0 0c0-1.588-1.287-2.875-2.875-2.875S-5.75-1.588-5.75 0s1.287 2.875 2.875 2.875S0 1.588 0 0z" stroke-linecap="round" stroke-linejoin="round" transform="matrix(1.19788 0 0 -1.2078 102.32 47.137)"/><path fill="#fff" d="M166.92 39.97c0 1.917-1.542 3.473-3.445 3.473-1.902 0-3.444-1.556-3.444-3.473 0-1.918 1.55-3.472 3.45-3.472 1.91 0 3.45 1.554 3.45 3.472"/><path fill="none" stroke="#231f20" stroke-width=".52" stroke-miterlimit="10" d="M0 0c0-1.587-1.287-2.875-2.875-2.875S-5.75-1.587-5.75 0c0 1.588 1.287 2.875 2.875 2.875S0 1.588 0 0z" stroke-linecap="round" stroke-linejoin="round" transform="matrix(1.19788 0 0 -1.2078 166.92 39.97)"/><path fill="#fff" d="M147.896 29.77c0 1.918-1.543 3.472-3.444 3.472-1.902 0-3.444-1.554-3.444-3.472s1.542-3.473 3.444-3.473c1.9 0 3.444 1.555 3.444 3.473"/><path fill="none" stroke="#231f20" stroke-width=".52" stroke-miterlimit="10" d="M0 0c0-1.588-1.288-2.875-2.875-2.875C-4.463-2.875-5.75-1.588-5.75 0s1.287 2.875 2.875 2.875C-1.288 2.875 0 1.588 0 0z" stroke-linecap="round" stroke-linejoin="round" transform="matrix(1.19788 0 0 -1.2078 147.896 29.77)"/><path fill="#fff" d="M167.906 60.303l5.792-3.096.243.415-2.05 1.57-3.78 1.665-.2-.554z"/><path fill="#fff" stroke="#231f20" stroke-width=".52" stroke-miterlimit="10" d="M0 0c-.207.387-.328.827-.338 1.294-.032 1.588 1.23 2.9 2.816 2.934 1.09.022 2.053-.566 2.558-1.452" stroke-linecap="round" stroke-linejoin="round" transform="matrix(1.19788 0 0 -1.2078 167.98 60.857)"/><path fill="#fff" d="M148.27 46.183c-.232-.05 1.022-3.69 3.938-3.02 1.855.425 3.282 1.876 3.1 3.786-.166 1.75-1.593 3.07-3.29 3.13 0 0 .11-3.06-3.75-3.91"/><path fill="none" stroke="#231f20" stroke-width=".52" stroke-miterlimit="10" d="M0 0c-.193.042.854 3.055 3.288 2.5 1.55-.35 2.74-1.553 2.59-3.134-.14-1.45-1.332-2.545-2.75-2.6 0 0 .094 2.53-3.128 3.234z" stroke-linecap="round" stroke-linejoin="round" transform="matrix(1.19788 0 0 -1.2078 148.27 46.183)"/><path fill="#fff" d="M89.22 54.334c0 1.93-1.55 3.492-3.463 3.492-1.91 0-3.462-1.563-3.462-3.492 0-1.928 1.55-3.492 3.462-3.492 1.913 0 3.463 1.564 3.463 3.492"/><path fill="none" stroke="#231f20" stroke-width=".52" stroke-miterlimit="10" d="M0 0c0-1.597-1.294-2.89-2.89-2.89S-5.78-1.598-5.78 0c0 1.596 1.294 2.89 2.89 2.89S0 1.597 0 0z" stroke-linecap="round" stroke-linejoin="round" transform="matrix(1.19788 0 0 -1.2078 89.22 54.334)"/><path fill="#fff" stroke="#231f20" stroke-width=".52" stroke-miterlimit="10" d="M0 0c1.307-.39 2.048-1.767 1.656-3.073C1.266-4.38-.11-5.12-1.417-4.73" stroke-linecap="round" stroke-linejoin="round" transform="matrix(1.19788 0 0 -1.2078 76.527 38.184)"/><path fill="none" stroke="#231f20" stroke-width=".52" stroke-miterlimit="10" d="M0 0c-1.77-.695-2.7-2.817-4.33-3.796-1.556-.935-8.895-3.24-10.778-.386" stroke-linecap="round" stroke-linejoin="round" transform="matrix(1.19788 0 0 -1.2078 96.14 61.807)"/><path fill="none" stroke="#231f20" stroke-width=".52" stroke-miterlimit="10" d="M0 0c-.318-.654-.18-1.476.255-2.06.434-.582 1.98-.256 2.696-.387" stroke-linecap="round" stroke-linejoin="round" transform="matrix(1.19788 0 0 -1.2078 81.035 61.404)"/><path fill="none" stroke="#231f20" stroke-width=".52" stroke-miterlimit="10" d="M0 0c-2.692.968-3.652-2.447-2.497-4.515.807-1.443-2.84-.037-2.58-1.98.106-.813.66-1.4 1.398-1.762 2.48-1.217 5.46-1.35 8.03-.356" stroke-linecap="round" stroke-linejoin="round" transform="matrix(1.19788 0 0 -1.2078 81.035 61.404)"/><path fill="none" stroke="#231f20" stroke-width=".52" stroke-miterlimit="10" d="M0 0c-.3-1.122-.647-2.348.31-3.002.96-.655 2.168-.835 3.328-.826 3.082.025 6.135 1.314 8.302 3.505" stroke-linecap="round" stroke-linejoin="round" transform="matrix(1.19788 0 0 -1.2078 76.628 71.377)"/><path fill="none" stroke="#231f20" stroke-width=".52" stroke-miterlimit="10" d="M0 0c.247-1.095-.33-2.227-1.112-3.03-.784-.804-1.768-1.38-2.62-2.11-1.374-1.173-2.398-2.77-2.815-4.53-.417-1.758-.21-3.67.644-5.264.676-1.263 1.927-2.38 3.358-2.297" stroke-linecap="round" stroke-linejoin="round" transform="matrix(1.19788 0 0 -1.2078 87.64 77.146)"/><path fill="none" stroke="#231f20" stroke-width=".52" stroke-miterlimit="10" d="M0 0c-.657-.226-.995-.966-1.075-1.656-.164-1.402.48-2.87 1.625-3.696 1.144-.826 2.74-.978 4.02-.38" stroke-linecap="round" stroke-linejoin="round" transform="matrix(1.19788 0 0 -1.2078 84.793 92.017)"/><path fill="none" stroke="#231f20" stroke-width=".52" stroke-miterlimit="10" d="M0 0c-.652.083-1.097.69-1.403 1.273-1.473 2.796-1.55 6.34.003 9.09.386.685.878 1.328 1.53 1.77.65.442 1.477.664 2.24.472-.527.392-.953.782-1.33 1.32-.374.54-.566 1.25-.334 1.865" stroke-linecap="round" stroke-linejoin="round" transform="matrix(1.19788 0 0 -1.2078 80.57 95.184)"/><path fill="none" stroke="#231f20" stroke-width=".52" stroke-miterlimit="10" d="M0 0c-.114-1.674-.233-3.373-.802-4.952-.568-1.58-1.654-3.05-3.204-3.693-1.042-.432-2.2-.46-3.33-.485" stroke-linecap="round" stroke-linejoin="round" transform="matrix(1.19788 0 0 -1.2078 92.69 90.423)"/><path fill="none" stroke="#231f20" stroke-width=".52" stroke-miterlimit="10" d="M0 0c.047-.93 1.437-2.47 2.247-2.928C3.75-3.776 4-3.93 5.707-4.2c3.713-.586 2.52-.236 4.197 9.222" stroke-linecap="round" stroke-linejoin="round" transform="matrix(1.19788 0 0 -1.2078 84.974 112.247)"/><path fill="none" stroke="#231f20" stroke-width=".52" stroke-miterlimit="10" d="M0 0c.215-.437-1.91-.54-1.793-3.073.035-.757.03-1.54-.264-2.238-.356-.85-1.017-1.72-1.918-1.91 1.157-.05 2.184.73 3.337.83 4.264.35 6.077 6.16 6 7.34" stroke-linecap="round" stroke-linejoin="round" transform="matrix(1.19788 0 0 -1.2078 91.81 117.32)"/><path fill="none" stroke="#231f20" stroke-width=".52" stroke-miterlimit="10" d="M0 0c.44-2.397-3.05-5.616-3.58-6.157-1.16-1.178-3.88-.76-5.528-.653" stroke-linecap="round" stroke-linejoin="round" transform="matrix(1.19788 0 0 -1.2078 101.956 116.81)"/><path fill="none" stroke="#231f20" stroke-width=".52" stroke-miterlimit="10" d="M0 0c.503.593 1.242.95 2.003 1.112.76.163 1.547.15 2.323.106.362-.02.728-.047 1.077-.145 1.03-.29 1.784-1.15 2.473-1.97" stroke-linecap="round" stroke-linejoin="round" transform="matrix(1.19788 0 0 -1.2078 120.098 36.522)"/><path fill="none" stroke="#231f20" stroke-width=".52" stroke-miterlimit="10" d="M0 0c.807.276 1.715.24 2.496-.1.402-.176.768-.427 1.12-.69.895-.663 1.77-1.478 2.046-2.558" stroke-linecap="round" stroke-linejoin="round" transform="matrix(1.19788 0 0 -1.2078 124.122 38.54)"/><path fill="none" stroke="#231f20" stroke-width=".52" stroke-miterlimit="10" d="M0 0c-1.02-.232-1.89-.928-2.53-1.757-.64-.83-1.078-1.792-1.513-2.745l-.846-1.86c-.44-.98-.89-1.97-1.14-3.02-.26-1.158-.27-2.374-.03-3.536 1.89-.15 4.02.31 5.69 1.204.34.18.71.48.63.85-.06.29-.41.442-.7.403-.29-.04-.55-.22-.79-.39-1.44-1-3.04-1.89-4.8-1.99" stroke-linecap="round" stroke-linejoin="round" transform="matrix(1.19788 0 0 -1.2078 136.844 21.952)"/><path fill="none" stroke="#231f20" stroke-width=".52" stroke-miterlimit="10" d="M0 0c2.975-2.792 8.37-4.672 12.48-3.625.7.18 1.415.44 1.896.98.112.124.213.27.24.437.06.374-.286.716-.658.786-.372.07-.75-.06-1.1-.202-.874-.356-1.708-.81-2.605-1.1-2.32-.753-4.44-.487-6.725.366" stroke-linecap="round" stroke-linejoin="round" transform="matrix(1.19788 0 0 -1.2078 129.532 37.604)"/><path fill="none" stroke="#231f20" stroke-width=".52" stroke-miterlimit="10" d="M0 0c-.078-.766 1.202-2.21 1.902-2.53.7-.322 1.495-.342 2.265-.365.89-.026 1.794-.066 2.64-.342.847-.275 1.644-.82 2.032-1.62.3-.635.33-1.363.47-2.054.23-1.18.8-2.25 1.4-3.29.55-.96 1.26-2 2.35-2.18" stroke-linecap="round" stroke-linejoin="round" transform="matrix(1.19788 0 0 -1.2078 140.988 42.493)"/><path fill="none" stroke="#231f20" stroke-width=".52" stroke-miterlimit="10" d="M0 0c.033-1.2.283-2.395.732-3.508.718-1.778 1.96-3.35 3.566-4.4 1.604-1.047 4.113-2.232 6.018-2.02" stroke-linecap="round" stroke-linejoin="round" transform="matrix(1.19788 0 0 -1.2078 149.035 49.63)"/><path fill="none" stroke="#231f20" stroke-width=".52" stroke-miterlimit="10" d="M0 0c.95-2.025 2.738-3.584 4.76-4.54 1.456-.688 3.033-1.083 4.626-1.29.545-.072 1.448.058 1.82-.396.425-.52.334-1.48.222-2.08-.138-.742-.392-1.47-.387-2.223.01-.37.08-.75.3-1.06.18-.24.43-.41.69-.57.83-.51 1.79-.99 2.14-1.9.2-.52.17-1.1.36-1.63.26-.68.87-1.15 1.45-1.58" stroke-linecap="round" stroke-linejoin="round" transform="matrix(1.19788 0 0 -1.2078 152.45 51.902)"/><path fill="none" stroke="#231f20" stroke-width=".52" stroke-miterlimit="10" d="M0 0c-.248-1.46.206-3.024 1.197-4.126.95-1.057 2.297-1.647 3.514-2.382 1.22-.73 2.83-1.69 3.8-2.72" stroke-linecap="round" stroke-linejoin="round" transform="matrix(1.19788 0 0 -1.2078 161.393 61.62)"/><path fill="none" stroke="#231f20" stroke-width=".52" stroke-miterlimit="10" d="M0 0c1.21-.69 2.09-1.83 2.878-2.976.644-.938 1.257-1.92 1.577-3.012.26-.884.317-1.813.333-2.734.03-1.77-.102-3.59-.826-5.206" stroke-linecap="round" stroke-linejoin="round" transform="matrix(1.19788 0 0 -1.2078 155.32 63.34)"/><path fill="none" stroke="#231f20" stroke-width=".52" stroke-miterlimit="10" d="M0 0c1.566-.9 2.536-2.744 2.39-4.543-.03-.356-.1-.71-.243-1.038-.36-.83-3.006-4.03-3.83-4.4" stroke-linecap="round" stroke-linejoin="round" transform="matrix(1.19788 0 0 -1.2078 171.543 72.755)"/><path fill="none" stroke="#231f20" stroke-width=".52" stroke-miterlimit="10" d="M0 0c.99-1.086 1.53-3.768 1.118-5.18-.19-.654-.49-1.28-.89-1.833-.192-.27-.713-.844-.888-1.117-.225-.35-.044-1.607-.41-1.977-.443-.446-1.067-.887-1.682-.767-3.243.635-1.227-3.564-.524-3.978" stroke-linecap="round" stroke-linejoin="round" transform="matrix(1.19788 0 0 -1.2078 174.376 77.146)"/><path fill="none" stroke="#231f20" stroke-width=".52" stroke-miterlimit="10" d="M0 0c.45-.462.632-1.122.714-1.76.12-.946.057-1.913-.184-2.835C.35-5.29.067-5.953-.14-6.64c-.917-3.07-.192-6.583 1.866-9.04.338-.405.72-.79 1.198-1.02.353-.17.744-.247 1.13-.322.856-.168-.06-4.722 3.73-4.368" stroke-linecap="round" stroke-linejoin="round" transform="matrix(1.19788 0 0 -1.2078 165.596 74.524)"/><path fill="none" stroke="#231f20" stroke-width=".52" stroke-miterlimit="10" d="M0 0c-.432-.898-.058-10.855 2.922-12.827 1.92-1.27 3.667-2.686 4.834-4.735.775-1.36 1.115-2.966.96-4.526-.07-.72-.248-1.434-.575-2.08-.38-.76-.97-1.4-1.59-1.986-.78-.742-4.43-2.39-3.18-4.63" stroke-linecap="round" stroke-linejoin="round" transform="matrix(1.19788 0 0 -1.2078 160.435 84.328)"/><path fill="none" stroke="#231f20" stroke-width=".52" stroke-miterlimit="10" d="M0 0c.706-1.764.872-3.74.47-5.596C.22-6.75-.31-7.933-1.335-8.513" stroke-linecap="round" stroke-linejoin="round" transform="matrix(1.19788 0 0 -1.2078 171.13 105.573)"/><path fill="none" stroke="#231f20" stroke-width=".52" stroke-miterlimit="10" d="M0 0c.706-1.764.872-3.74.47-5.597C.223-6.75-.31-7.933-1.334-8.514" stroke-linecap="round" stroke-linejoin="round" transform="matrix(1.19788 0 0 -1.2078 176.27 77.26)"/><path fill="none" stroke="#231f20" stroke-width=".52" stroke-miterlimit="10" d="M0 0c-2.33 6.163 3.96 1.04 5.63 2.504" stroke-linecap="round" stroke-linejoin="round" transform="matrix(1.19788 0 0 -1.2078 168.178 103.383)"/><path fill="none" stroke="#231f20" stroke-width=".52" stroke-miterlimit="10" d="M0 0c0-9.207 11.538-12.675 4.195-18.846" stroke-linecap="round" stroke-linejoin="round" transform="matrix(1.19788 0 0 -1.2078 157.054 95.697)"/><path fill="none" stroke="#231f20" stroke-width=".52" stroke-miterlimit="10" d="M0 0c.046-1.024.104-2.095.62-2.98.495-.847 1.347-1.415 2.18-1.932.982-.61 2.046-1.21 3.203-1.207" stroke-linecap="round" stroke-linejoin="round" transform="matrix(1.19788 0 0 -1.2078 161.792 116.01)"/><path fill="none" stroke="#231f20" stroke-width=".52" stroke-miterlimit="10" d="M0 0c.336-2.43 2-4.957 4.402-5.462 2.76-.58 6.81.823 6.027.548" stroke-linecap="round" stroke-linejoin="round" transform="matrix(1.19788 0 0 -1.2078 156.49 117.465)"/><path fill="none" stroke="#231f20" stroke-width=".52" stroke-miterlimit="10" d="M0 0c1.453-3.482 8.09-5.232 9.92-4.914" stroke-linecap="round" stroke-linejoin="round" transform="matrix(1.19788 0 0 -1.2078 148.55 117.465)"/><path fill="none" stroke="#231f20" stroke-width=".52" stroke-miterlimit="10" d="M0 0c2.06 3.594 5.62 6.128 9.428 7.756 3.807 1.63 7.902 2.45 11.942 3.362 7.728 1.745 23.427 5.007 26.775 8.343.7.7 1.307 1.57 1.74 2.54 2.27 5.06 2.802 11.26 1.426 16.73" stroke-linecap="round" stroke-linejoin="round" transform="matrix(1.19788 0 0 -1.2078 44.905 167.643)"/><path fill="none" stroke="#231f20" stroke-width=".52" stroke-miterlimit="10" d="M0 0c-2.77-10.242-4.46-23.9-4.38-34.98" stroke-linecap="round" stroke-linejoin="round" transform="matrix(1.19788 0 0 -1.2078 44.962 167.215)"/><path fill="none" stroke="#231f20" stroke-width=".52" stroke-miterlimit="10" d="M0 0c.713-2.666.816-5.452.916-8.21.39-10.822.772-21.763-1.35-32.382-.367-1.83-2.394-14.313-2.586-16.17-.594-5.77 3.625-9.27 3.567-12.527-.05-2.76-3.202-3.74-3.728-8.33" stroke-linecap="round" stroke-linejoin="round" transform="matrix(1.19788 0 0 -1.2078 73.375 153.656)"/><path fill="none" stroke="#231f20" stroke-width=".52" stroke-miterlimit="10" d="M0 0c0-22.792-13.198-42.486-31.164-42.486-17.916 0-32.45 18.374-32.53 41.08" stroke-linecap="round" stroke-linejoin="round" transform="matrix(1.19788 0 0 -1.2078 163.475 148.557)"/><path fill="none" stroke="#231f20" stroke-width=".52" stroke-miterlimit="10" d="M0 0c0-23.91-14.56-44.484-34.4-44.484-19.74 0-35.76 19.19-35.92 42.935M0 0c-6.442 1.626-12.784 3.58-14.77 5.562-.704.7-1.31 1.563-1.744 2.53-2.27 5.056-3.542 10.823-2.167 16.292" stroke-linecap="round" stroke-linejoin="round" transform="matrix(1.19788 0 0 -1.2078 167.194 149.542)"/><path fill="none" stroke="#231f20" stroke-width=".52" stroke-miterlimit="10" d="M0 0c2.248 10.53-17.543 14.043-21.583 14.956-3.14.708-7.595 1.668-12.003 2.78" stroke-linecap="round" stroke-linejoin="round" transform="matrix(1.19788 0 0 -1.2078 207.426 170.964)"/><path fill="none" stroke="#231f20" stroke-width=".52" stroke-miterlimit="10" d="M0 0c-.713-2.666-1.423-4.79-1.522-7.55-.39-10.822 1.508-21.39 3.63-32.01.368-1.83 3.995-15.187 2.586-19.072" stroke-linecap="round" stroke-linejoin="round" transform="matrix(1.19788 0 0 -1.2078 178.792 152.273)"/><path fill="none" stroke="#211d1d" stroke-width=".52" stroke-miterlimit="10" d="M0 0c-.482-.2-1.037-.13-1.535.027C-2.405.3-3.177.817-4 1.21s-1.766.668-2.644.422c-.46-.13-.87-.393-1.314-.565-.445-.17-.975-.24-1.38.01-.846.524-2.006.74-2.917.345-.473-.205-.837-.59-1.232-.92-1.065-.89-2.434-1.41-3.82-1.45 1.958.272 4.096.24 6.055.512.963.134 1.926.268 2.896.335 1.483.1 2.972.05 4.46 0C-2.772-.14-1.143-.46 0 0z" stroke-linecap="round" stroke-linejoin="round" transform="matrix(1.19788 0 0 -1.2078 136.36 111.384)"/><path fill="none" stroke="#231f20" stroke-width=".52" stroke-miterlimit="10" d="M0 0c-.792.476-1.26 1.407-1.264 2.33-.004.924.425 1.822 1.08 2.473.505.5 1.153.887 1.482 1.517.124-.506.468-.923.734-1.37.49-.827.727-1.83.526-2.77-.202-.94-.96-2.244-1.875-2.544" transform="matrix(1.19788 0 0 -1.2078 57.97 181.468)"/><path fill="none" stroke="#231f20" stroke-width=".52" stroke-miterlimit="10" d="M0 0c.506.904.884 2.056 1.114 3.065l.713 3.116C1.74 4.11 1.587 1.72 1.1-.3" transform="matrix(1.19788 0 0 -1.2078 57.11 183.394)"/><path fill="none" stroke="#231f20" stroke-width=".52" stroke-miterlimit="10" d="M0 0c.488.475.594 1.21.67 1.886.04.326.076.66 0 .98-.073.32-.283.63-.597.73-.376.12-.893-.037-1.1.3-.052.084-.072.19-.14.262-.075.082-.193.105-.304.124-.4.07-.83.137-1.21 0-.68-.246-.98-1.037-1.06-1.753-.1-.96.05-1.93.45-2.8.05-.12-.12.05 0 0C-3.09-.37-1.03 1.6 0 0c.063.336.61.61.904.787.293.177.63.267.963.345.4.095.9.142 1.146-.187.247-.33.056-.798.084-1.21.036-.546.463-.992.56-1.53.074-.402-.045-.816-.21-1.19-.12-.272-.268-.536-.48-.745-.352-.35-2.342-.512-2.832-.433-.303-.143-1.01-.358-1.154-.688-.13-.31-.07-.67 0-1l.18-.87c.05-.24.1-.47.21-.68.33-.66 1.11-.84 1.79-.74.14.02.27.05.39.13.28.19.36.59.39.94.03.35.04.74.24 1.02.17.22.43.33.63.52.33.32.18 1.78-.89 1.45" transform="matrix(1.19788 0 0 -1.2078 58.34 188.1)"/><path fill="none" stroke="#231f20" stroke-width=".52" stroke-miterlimit="10" d="M0 0c.347-.194.7-.347 1.022-.454.188-.06.39-.112.574-.05.184.06.335.272.274.473-.05.16-.21.25-.355.32C1.06.52.598.72.137.93L-.7 1.3c-.272.12-.83.494-1.103.42.283-.576.76-1.022 1.258-1.38C-.127.04.505-.3.79-.75c.197-.31.2-.792-.085-.99-.25-.17-.59-.054-.86.1-.97.557-1.708 1.583-1.962 2.73-.056.246-.085.52.034.735.46.82 1.594 1.005 2.473 1.19.123.025.254.047.373.002.2-.08.306-.31.363-.53.077-.3.066-.69-.184-.83.608-.044 1.044-.7 1.18-1.344.02-.08.032-.17 0-.244-.032-.08-.13-.12-.19-.07" transform="matrix(1.19788 0 0 -1.2078 56.89 191.456)"/><path fill="none" stroke="#231f20" stroke-width=".52" stroke-miterlimit="10" d="M0 0c.583-.052 1.18-.21 1.744-.056-.44-.12-.65-1.173-.793-1.525C.71-2.19.33-2.66-.33-2.81c-1.322-.296-1.802.98-1.35 2.045C-1.398-.088-.665.06 0 0z" transform="matrix(1.19788 0 0 -1.2078 61.66 181.454)"/><path fill="none" stroke="#231f20" stroke-width=".52" stroke-miterlimit="10" d="M0 0c.04.584.185 1.184.017 1.745.13-.438 1.187-.623 1.543-.758.608-.23 1.086-.595 1.25-1.255.325-1.314-.94-1.82-2.014-1.395C.12-1.395-.044-.665 0 0z" stroke-linecap="round" stroke-linejoin="round" transform="matrix(1.19788 0 0 -1.2078 52.877 179.803)"/><path fill="#faf9fc" d="M58.47 197.795c.387.11.588.552.663.952.966 5.28-4.217-1.765-4.08-2.675-.38.405.865 3.01.31 3.003.562 1.312 3.27 3.21 4.463 2.69 1.06-.465.624-4.16.624-4.16-.733.316-1.98.19-1.98.19"/><path fill="none" stroke="#231f20" stroke-width=".52" stroke-miterlimit="10" d="M0 0c.324-.092.492-.457.554-.788C1.36-5.16-2.966.672-2.85 1.427c-.32-.336.72-2.492.256-2.487.47-1.086 2.732-2.657 3.727-2.226.885.384.52 3.444.52 3.444C1.043-.104 0 0 0 0z" stroke-linecap="round" stroke-linejoin="round" transform="matrix(1.19788 0 0 -1.2078 58.47 197.795)"/><path fill="#faf9fc" stroke="#231f20" stroke-width=".52" stroke-miterlimit="10" d="M0 0c-.784-.518.313-2.724.19-2.77-.11-.044-.93-.517-1.056-.626-.177.85-.82 3.627-.182 4.213" transform="matrix(1.19788 0 0 -1.2078 58.134 204.257)"/><path fill="none" stroke="#231f20" stroke-width=".52" stroke-miterlimit="10" d="M0 0c.638.49 1.458.49 1.832 0 .373-.487.158-1.28-.48-1.768s-1.458-.488-1.832 0C-.854-1.28-.64-.488 0 0zm-2.774-6.07c-.71.095-1.207.746-1.113 1.455.094.71.745 1.207 1.454 1.113.71-.095 1.207-.746 1.113-1.455-.094-.71-.745-1.207-1.454-1.112zM-4.277-.337c.086.64.673 1.09 1.313 1.004.64-.085 1.09-.673 1.005-1.313-.08-.64-.67-1.09-1.31-1.005-.64.08-1.09.67-1 1.31zm6.254-2.34c1.218.933 1.596 2.485.845 3.467C2.07 1.77.475 1.81-.744.88-.942.727-1.116.557-1.27.377c-.286.608-.863 1.063-1.578 1.16-1.12.148-2.15-.64-2.3-1.76-.15-1.122.64-2.15 1.76-2.3.07-.01.137-.005.206-.007-.75-.23-1.377-.854-1.592-1.7-.324-1.265.387-2.538 1.586-2.844 1.2-.306 2.433.47 2.755 1.734.218.852-.036 1.707-.59 2.268.83-.47 2.034-.344 3 .395z" transform="matrix(1.19788 0 0 -1.2078 58.18 209.263)"/><path fill="#faf9fc" d="M59.282 203.707c-.285-.492-.635-.973-1.137-1.235-.088-.047-.19-.087-.287-.068-.095.018-.17.088-.24.155-.247.23-.493.47-.74.71.75.35 1.597.9 1.724 1.72.186 1.22-.356 7.07.98 6.54 0 0 .79-5.96-.3-7.84"/><path fill="none" stroke="#231f20" stroke-width=".52" stroke-miterlimit="10" d="M0 0c-.238.408-.53.806-.95 1.023-.073.04-.157.072-.24.056-.078-.02-.14-.08-.2-.13l-.616-.59C-1.38.07-.674-.39-.568-1.07c.156-1.01-.297-5.852.82-5.42C.25-6.487.908-1.554 0 0z" transform="matrix(1.19788 0 0 -1.2078 59.282 203.707)"/><path fill="#faf9fc" stroke="#231f20" stroke-width=".52" stroke-miterlimit="10" d="M0 0c.222-.226.443-.453.637-.703.64-.83.936-1.917.804-2.957-.02-.19-.05-.39.03-.563.07-.152.23-.257.4-.263.07-.002.14.012.2.047.15.09.2.26.23.42.03.15.04.29.06.43.05.56.1 1.13-.06 1.66-.15.53-.49.98-.83 1.41C1.19-.17.9.2.49.38" transform="matrix(1.19788 0 0 -1.2078 59.932 212.978)"/><path fill="#faf9fc" d="M47.235 221.387s11.554 5.89 12.07-6.185c.032-.71.01-1.48-.408-2.057l1.798.683c.02 14.58-12.467 10.732-12.467 10.732l-.993-3.173z"/><path fill="none" stroke="#231f20" stroke-width=".52" stroke-miterlimit="10" d="M0 0s9.645-4.877 10.076 5.12c.027.59.007 1.227-.34 1.704l1.5-.565C11.253-5.82.83-2.63.83-2.63L0 0z" stroke-linecap="round" stroke-linejoin="round" transform="matrix(1.19788 0 0 -1.2078 47.235 221.387)"/><path fill="none" stroke="#231f20" stroke-width=".52" stroke-miterlimit="10" d="M0 0c.34.58 1.048.81 1.694.99.494.14 1.004.28 1.515.222C4.26 1.094 5.14.157 6.2.24c-.42-.32-.842-.637-1.263-.955-.808-.612-1.695-1.25-2.708-1.254-1.02 0-1.99.72-2.28 1.69-.02.07-.04.15-.02.22.05.13.2.16.34.17 1.15.11 2.31 0 3.41-.31" transform="matrix(1.19788 0 0 -1.2078 49.522 219.01)"/><path fill="#faf9fc" d="M61.176 212.367c-.104.786-.82 1.338-1.6 1.235-.78-.106-1.327-.828-1.222-1.613.1-.79.818-1.34 1.6-1.24.777.1 1.326.82 1.222 1.61"/><path fill="none" stroke="#231f20" stroke-width=".52" stroke-miterlimit="10" d="M0 0c-.087-.65-.685-1.108-1.335-1.022-.65.087-1.108.685-1.02 1.335.084.65.682 1.108 1.334 1.022C-.37 1.25.08.65 0 0z" transform="matrix(1.19788 0 0 -1.2078 61.176 212.367)"/><path fill="none" stroke="#231f20" stroke-width=".52" stroke-miterlimit="10" d="M0 0c.654.334 1.187.925 1.646 1.558.276.38.542.822.542 1.308 0 .248-.072.485-.142.717l-.247.815c-.01.033-.03.068-.05.088-.04.03-.1.012-.14-.01-.9-.405-1.75-.982-2.5-1.7C-1.48 2.214-2 1.253-1.82.35-1.65-.557-.567-.288 0 0z" transform="matrix(1.19788 0 0 -1.2078 48.027 220.15)"/><path fill="none" stroke="#231f20" stroke-width=".52" stroke-miterlimit="10" d="M0 0c-.153-.544-.543-.992-.97-1.364-1.297-1.13-5.43-2.4-7.457-1.862" transform="matrix(1.19788 0 0 -1.2078 53.05 211.86)"/><path fill="none" stroke="#231f20" stroke-width=".52" stroke-miterlimit="10" d="M0 0c.472.238 1.948 1.21 2.47 1.292.523.08 1.102-.025 1.474-.4.367-.37.47-.933.415-1.45.45.02.91-.03 1.35-.15.23-.066.47-.155.65-.32.18-.164.29-.42.24-.656.28.142.57.284.87.364.83.217 1.78-.086 2.33-.747.55-.662.68-1.647.32-2.428.65-.067 1.15-.67 1.3-1.31.14-.642.21-1.145.04-1.78.61-.417 1-1.133 1.02-1.87.02-.738-.32-1.478-.9-1.934.31-1.05.02-2.26-.74-3.06.33-.21.47-.61.58-.99.24-.84.41-1.72.27-2.58-.14-.86-.61-1.71-1.39-2.11.67-1.03.41-2.56-.56-3.31.29-.49.26-1.11.07-1.64-.2-.53-.54-.99-.88-1.45.34-.05.63-.32.77-.64s.16-.68.17-1.03c.01-.55-.22-2.55-.98-2.96" transform="matrix(1.19788 0 0 -1.2078 50.418 170.21)"/><path fill="none" stroke="#231f20" stroke-width=".52" stroke-miterlimit="10" d="M0 0c.27.428.83.59 1.334.538.324-.034.653-.15.88-.385.224-.236.323-.61.18-.903.26.03.532.06.783-.02.25-.08.474-.305.466-.568.153.002.313.002.452-.064.137-.066-.017-.872-.054-1.02" transform="matrix(1.19788 0 0 -1.2078 52.404 173.346)"/><path fill="none" stroke="#231f20" stroke-width=".52" stroke-miterlimit="10" d="M0 0c.542.068 1.11-.12 1.504-.498.394-.378.607-.938.562-1.482-.025-.31-.128-.608-.13-.918 0-.484.246-.934.33-1.41.105-.595-.043-1.203-.23-1.776-.518-1.585-2.832-5.084-2.292-6.83" transform="matrix(1.19788 0 0 -1.2078 52.63 193.016)"/><path fill="none" stroke="#231f20" stroke-width=".52" stroke-miterlimit="10" d="M0 0c0-.408.068-.76-.06-1.147-.127-.387-.405-.748-.794-.867.21-.327.226-.744.172-1.13-.048-.353.6-.814-.573-1.58-.28-.184-.424-.104-.76-.11.604-.532.654-1.39.494-2.178C-.25-7.58.58-9.01.45-10.4c-.013-.134-.034-.27-.017-.404.024-.194.126-.367.214-.54.725-1.427.612-3.242-.286-4.567" transform="matrix(1.19788 0 0 -1.2078 52.324 173.556)"/><path fill="none" stroke="#231f20" stroke-width=".52" stroke-miterlimit="10" d="M0 0c.5.28 1.13.36 1.65.123.52-.236.888-.82.79-1.384 1.026-.42-.19-1.42-.116-2.13.273.31.602.58.968.79.174.09.427.16.545 0 .046-.06.056-.15.063-.22.044-.41.088-.81.13-1.22" transform="matrix(1.19788 0 0 -1.2078 47.495 168.688)"/><path fill="none" stroke="#231f20" stroke-width=".52" stroke-miterlimit="10" d="M0 0c-.85.13-4.587.533-7.173-.668l.23 2.155c.527.25 3.56.348 4.13.396.566.048 1.71-.135 2.077.3.367.436-.16 1.543-.62 1.876C-.71 3.94-.012 4.54-.1 5.2c-.024.19-.106.373-.092.564.014.222.155.416.203.632.07.31-.07.654-.34.822-.27.168-.64.148-.89-.05" transform="matrix(1.19788 0 0 -1.2078 50.503 182.025)"/><path fill="none" stroke="#231f20" stroke-width=".52" stroke-miterlimit="10" d="M0 0c-.125-2.438 5.57-2.33 6.014-2.286.442.045 1.276.106 1.655.338.51.317 1 .696 1.43 1.125.3.305.6.663.65 1.092.05.42-.14.83-.28 1.23-.38 1.05-.22 1.97-.22 3.04 0 .38 0 1.04-.49 1.05-.33 0-.53-.45-.9-.39-.41.07-.42.72-.8.88-.51.21-.91-.68-1.46-.64-.45.03-.75.67-1.17.53-.18-.06-.29-.24-.42-.37-.4-.38-1.05-.28-1.57-.1-.17.05-.34.11-.51.11C1.36 5.6.85 4.45.46 4" transform="matrix(1.19788 0 0 -1.2078 40.58 192.25)"/><path fill="none" stroke="#231f20" stroke-width=".52" stroke-miterlimit="10" d="M0 0c1.112.47 2.87 1.526 3.395 2.613" stroke-linecap="round" stroke-linejoin="round" transform="matrix(1.19788 0 0 -1.2078 48.695 195.93)"/><path fill="none" stroke="#231f20" stroke-width=".52" stroke-miterlimit="10" d="M0 0c0-.42-.34-.762-.762-.762-.42 0-.76.34-.76.762 0 .42.34.762.76.762S0 .422 0 0z" transform="matrix(1.19788 0 0 -1.2078 48.695 195.93)"/><path fill="none" stroke="#231f20" stroke-width=".52" stroke-miterlimit="10" d="M0 0c0-.184-.148-.332-.33-.332-.185 0-.333.148-.333.332 0 .183.148.332.332.332C-.15.332 0 .182 0 0z" transform="matrix(1.19788 0 0 -1.2078 49.523 188.66)"/><path fill="none" stroke="#231f20" stroke-width=".52" stroke-miterlimit="10" d="M0 0c0-.196-.158-.354-.354-.354-.197 0-.355.158-.355.354 0 .196.16.355.36.355C-.16.355 0 .195 0 0z" transform="matrix(1.19788 0 0 -1.2078 44.133 189.088)"/><path fill="none" stroke="#231f20" stroke-width=".52" stroke-miterlimit="10" d="M0 0c-.217-.412-.46-.82-.818-1.12-.36-.296-.853-.465-1.298-.332 0 0 1.34 3.4 2.11 3.602C1.306 2.495.16.306 0 0z" transform="matrix(1.19788 0 0 -1.2078 47.045 199.49)"/><path fill="none" stroke="#231f20" stroke-width=".52" stroke-miterlimit="10" d="M0 0c.217-.412.46-.82.82-1.12.357-.296.85-.465 1.297-.332 0 0-1.34 3.4-2.11 3.602C-1.307 2.495-.16.306 0 0z" transform="matrix(1.19788 0 0 -1.2078 48.625 199.396)"/><path fill="none" stroke="#231f20" stroke-width=".52" stroke-miterlimit="10" d="M0 0c-1.375-.09-2.72.39-3.99.925-.52.22-1.052.46-1.428.882" transform="matrix(1.19788 0 0 -1.2078 46.922 196.3)"/><path fill="none" stroke="#231f20" stroke-width=".52" stroke-miterlimit="10" d="M0 0c.302-2.51.894-5.32 1.353-8.098.412-2.494.282-4.796-1.426-6.66" transform="matrix(1.19788 0 0 -1.2078 47.495 197.604)"/><path fill="none" stroke="#231f20" stroke-width=".52" stroke-miterlimit="10" d="M0 0c-.193.198-.312.463-.51.655-.41.392-1.04.394-1.606.37" transform="matrix(1.19788 0 0 -1.2078 47.543 168.504)"/><path fill="none" stroke="#231f20" stroke-width=".52" stroke-miterlimit="10" d="M0 0c.516.253 1.098.372 1.67.34.23-.014.472-.058.638-.215.24-.226.236-.623.084-.915-.153-.292-.42-.502-.68-.703.4.094.837-.106 1.086-.435.25-.33.327-.764.285-1.175-.027-.263-.105-.53-.277-.732-.364-.428-1.008-.443-1.57-.424.168-.31.34-.64.387-1 .047-.35-.055-.75-.343-.97-.385-.29-.93-.16-1.38.02-.263.11-.53.23-.73.43-.202.2-.328.5-.253.78" transform="matrix(1.19788 0 0 -1.2078 44.352 170.105)"/><path fill="none" stroke="#231f20" stroke-width=".52" stroke-miterlimit="10" d="M0 0c.18.243.512.377.823.334.144-.02.287-.08.375-.188.09-.11.108-.27.02-.38C1.14-.34.993-.372.88-.442.845-.46.812-.488.8-.522.79-.56.8-.6.814-.637c.063-.183.13-.37.137-.56.01-.194-.05-.4-.21-.523-.19-.15-.47-.144-.72-.133-.08.003-.17.008-.24.046-.07.04-.12.123-.09.194" transform="matrix(1.19788 0 0 -1.2078 43.562 172.848)"/><path fill="none" stroke="#231f20" stroke-width=".52" stroke-miterlimit="10" d="M0 0c.34.177 2.98 1.07 3.358 1.127.812.12 1.588-.342 2.25-.827.818-.597 1.483.116 2.196-.603.048.017.19-1.4.204-1.448" stroke-linecap="round" stroke-linejoin="round" transform="matrix(1.19788 0 0 -1.2078 97.667 124.246)"/><path fill="none" stroke="#231f20" stroke-width=".52" stroke-miterlimit="10" d="M0 0c-1.343-.298-3.455.914-4.36.328-.994-.644-1.63-1.948-2.806-2.077-.598-.06-1.172.21-1.748.38-.576.17-.878-.16-1.304-.58" stroke-linecap="round" stroke-linejoin="round" transform="matrix(1.19788 0 0 -1.2078 156.383 122.862)"/><path fill="none" stroke="#231f20" stroke-width=".52" stroke-miterlimit="10" d="M0 0c2.034.585 3.893 1.127 5.585 2.4C7.277 3.67 8.638 5.475 9.05 7.552" stroke-linecap="round" stroke-linejoin="round" transform="matrix(1.19788 0 0 -1.2078 166.216 61.395)"/><path fill="none" stroke="#231f20" stroke-width=".52" stroke-miterlimit="10" d="M0 0c-.107.308-.206.68-.005.937.192.244.566.253.856.147.3-.106.55-.3.84-.4.5-.172 1.1-.034 1.47.34.1.102.19.22.3.313.4.342 1.04.296 1.45-.025.13-.096.23-.214.38-.274.12-.05.26-.054.39-.058.33-.01.67-.02 1-.028" stroke-linecap="round" stroke-linejoin="round" transform="matrix(1.19788 0 0 -1.2078 124.158 54.464)"/><path fill="none" stroke="#231f20" stroke-width=".52" stroke-miterlimit="10" d="M0 0c-2.108-5.228 2.89-7.583 4.65-7.655C3.678-8.205 1.665-9.98.555-9.85c.567-1.074 2.64-.23 3.856-.186l-1.86-1.417c-.63-.48-1.27-.965-2.02-1.22-.75-.252-1.63-.235-2.26.242.89-2.36 5.28-2 6.82-.97.38.25.74.55 1.03.91.86 1.11.84 2.64.79 4.04" stroke-linecap="round" stroke-linejoin="round" transform="matrix(1.19788 0 0 -1.2078 80.57 95.184)"/><path fill="none" stroke="#231f20" stroke-width=".52" stroke-miterlimit="10" d="M0 0c-.563-1.345-.507-2.864-.314-4.31.09-.674.21-1.356.502-1.97.292-.616.776-1.167 1.414-1.408" stroke-linecap="round" stroke-linejoin="round" transform="matrix(1.19788 0 0 -1.2078 76.73 84.178)"/><path fill="none" stroke="#231f20" stroke-width=".52" stroke-miterlimit="10" d="M0 0c-.14-1.43-1.25-2.716-2.647-3.06" stroke-linecap="round" stroke-linejoin="round" transform="matrix(1.19788 0 0 -1.2078 93.51 97.54)"/><path fill="none" stroke="#231f20" stroke-width=".52" stroke-miterlimit="10" d="M0 0c-.48-1.943-1.194-12.902-6.128-8.015" stroke-linecap="round" stroke-linejoin="round" transform="matrix(1.19788 0 0 -1.2078 96.153 95.697)"/><path fill="none" stroke="#231f20" stroke-width=".52" stroke-miterlimit="10" d="M0 0c.91.868 1.587 1.977 1.943 3.183.448 1.51.39 3.12.327 4.695" stroke-linecap="round" stroke-linejoin="round" transform="matrix(1.19788 0 0 -1.2078 159.948 80.287)"/><path fill="none" stroke="#231f20" stroke-width=".52" stroke-miterlimit="10" d="M0 0c-.6.094-1.187.265-1.744.508-.226.1-.457.218-.596.422" stroke-linecap="round" stroke-linejoin="round" transform="matrix(1.19788 0 0 -1.2078 108.05 85.767)"/><path fill="none" stroke="#231f20" stroke-width=".52" stroke-miterlimit="10" d="M0 0c-.535-.02-2.24.583-2.466.86" stroke-linecap="round" stroke-linejoin="round" transform="matrix(1.19788 0 0 -1.2078 107.037 86.327)"/><path fill="none" stroke="#231f20" stroke-width=".52" stroke-miterlimit="10" d="M0 0c-.97-.133-1.873.22-2.73.69" stroke-linecap="round" stroke-linejoin="round" transform="matrix(1.19788 0 0 -1.2078 106.13 86.934)"/><path fill="none" stroke="#231f20" stroke-width=".52" stroke-miterlimit="10" d="M0 0c1.025-.052 1.992.532 2.688 1.286" stroke-linecap="round" stroke-linejoin="round" transform="matrix(1.19788 0 0 -1.2078 140.988 84.563)"/><path fill="none" stroke="#231f20" stroke-width=".52" stroke-miterlimit="10" d="M0 0c.872-.184 1.808-.05 2.593.374" stroke-linecap="round" stroke-linejoin="round" transform="matrix(1.19788 0 0 -1.2078 141.775 84.985)"/><path fill="none" stroke="#231f20" stroke-width=".52" stroke-miterlimit="10" d="M0 0c.84-.273 1.77-.25 2.595.062" stroke-linecap="round" stroke-linejoin="round" transform="matrix(1.19788 0 0 -1.2078 142.897 85.586)"/><path fill="#fff" d="M113.657 85.786c0 .446-.358.807-.8.807-.44 0-.8-.36-.8-.807 0-.446.36-.805.8-.805.442 0 .8.36.8.81"/><path fill="none" stroke="#231f20" stroke-width=".52" stroke-miterlimit="10" d="M0 0c0-.37-.3-.668-.667-.668-.37 0-.668.3-.668.668 0 .37.3.667.668.667C-.3.667 0 .37 0 0z" stroke-linecap="round" stroke-linejoin="round" transform="matrix(1.19788 0 0 -1.2078 113.657 85.786)"/><path fill="#fff" d="M139.394 84.68c0 .447-.358.808-.8.808-.44 0-.8-.36-.8-.807 0-.44.36-.8.8-.8.442 0 .8.36.8.81"/><path fill="none" stroke="#231f20" stroke-width=".52" stroke-miterlimit="10" d="M0 0c0-.37-.3-.668-.668-.668-.368 0-.667.3-.667.668 0 .37.3.667.667.667C-.298.667 0 .37 0 0z" stroke-linecap="round" stroke-linejoin="round" transform="matrix(1.19788 0 0 -1.2078 139.394 84.68)"/><g clip-path="url(#c)" opacity=".15" transform="matrix(1.19788 0 0 -1.2078 -330.712 454.422)"><g clip-path="url(#d)"><path fill="#dc4faf" d="M357.246 304.89s1.526-8.605 8.404-11.084c6.878-2.48-1.226-9.584-5.362-2.688-4.135 6.895-3.042 13.77-3.042 13.77"/></g></g><g clip-path="url(#e)" opacity=".15" transform="matrix(1.19788 0 0 -1.2078 -330.712 454.422)"><g clip-path="url(#f)"><path fill="#dc4faf" d="M404.764 305.797s-1.89-8.87-8.843-11.35c-6.95-2.48 1.24-9.584 5.43-2.688 4.18 6.89 3.42 14.03 3.42 14.03"/></g></g><path fill="#231f20" d="M148.65 88.288c.384-1.058.505-2.55.507-3.678 0-.452-.237-.87-.502-1.234-1.505-2.075-3.774-3.002-6.308-3.27-7.327-.778-15.224 3.12-15.557 4.188 0 0 .184-.64 1.32-1.455 1.747-1.26 3.86-1.91 5.933-2.47 1.766-.48 3.583-.77 5.41-.87.527-.03 1.054-.05 1.583-.05 3.35.01 6.884.72 9.362 2.99-.463 1.72-1.137 4.15-1.75 5.83m-48.212 0c-.385-1.06-.506-2.55-.508-3.68 0-.45.237-.87.502-1.24 1.505-2.08 3.774-3 6.31-3.27 7.325-.78 15.222 3.12 15.556 4.19 0 0-.185-.64-1.32-1.46-1.748-1.26-3.862-1.91-5.935-2.47-1.76-.48-3.58-.77-5.4-.87-.52-.03-1.05-.05-1.58-.05-3.35.01-6.88.72-9.36 2.99.47 1.723 1.14 4.16 1.75 5.83m26.17-2.73c-.34-.31-2.39-1.526-4.39.26l-.01-1.1c2.02-1.8 4.08-.578 4.43-.26 0 0-.04 1.112 0 1.482"/><path fill="none" stroke="#231f20" stroke-width=".52" stroke-miterlimit="10" d="M0 0c1.226-.504 2.685-.397 3.823.28.662.394 1.203.956 1.79 1.456 1.45 1.24 3.15 1.167 4.954 1.42-2.382.174-4.765.828-7.148 1.002-.59.042-1.19.09-1.71.358C.89 4.936.44 5.812.03 6.633" stroke-linecap="round" stroke-linejoin="round" transform="matrix(1.19788 0 0 -1.2078 106.05 46.24)"/><path fill="none" stroke="#211d1d" stroke-width=".52" stroke-miterlimit="10" d="M0 0c-5.09-.897-10.563.897-15.652 0" transform="matrix(1.19788 0 0 -1.2078 107.17 161.368)"/><path fill="none" stroke="#211d1d" stroke-width=".52" stroke-miterlimit="10" d="M0 0c-5.09-.897-10.563.897-15.652 0" transform="matrix(1.19788 0 0 -1.2078 161.824 161.68)"/><path fill="none" stroke="#231f20" stroke-width=".52" stroke-miterlimit="10" d="M0 0c-2.45 4.98-4.606 8.883-7.534 13.436-.648 1.007-1.29 2.04-2.19 2.83-1.626 1.426-4.096 1.916-6.246 1.69-2.15-.227-3.996-1.107-5.847-2.22-1.367-.823-2.86-2.033-3.682-3.4-.5-.843-.8-1.795-1.21-2.688-1.35-2.905-5.39-6.1-6.09-12.045" transform="matrix(1.19788 0 0 -1.2078 117.757 30.088)"/><path fill="#dc4faf" d="M126.137 203.42c-23.764 0-43.03-23.412-43.03-52.292l-9.584 2.677c.854 3.22.98 6.585 1.098 9.914.47 13.07.93 26.28-1.61 39.11-.44 2.21-2.86 17.28-3.09 19.53-.71 6.96 4.83 11.23 4.27 15.13-.38 2.71-3.16 2.87-4.61 9.91 5.94.68 12.2 7.99 17.52 10.72 3.34 1.7 6.04 1.46 9.63 2.51 2.96.87 6.5 3.36 9.59 3.35 25.94-.07 36.99-4.8 60.9-19.1.82-.49 14.96-14.97 17.37-21.67 1.69-4.7-2.65-20.83-3.09-23.04-2.54-12.83-4.82-25.59-4.35-38.67.12-3.33.97-5.9 1.83-9.12l-11.58-2.84c-.58 28.67-17.46 53.83-41.22 53.83"/><path fill="#4cc3c8" d="M74.478 160.616c.06 1.035.106 2.07.143 3.103.05 1.37.09 2.76.13 4.14h6.15c1.54.03 3.05.11 4.55.21-.68-2.42-1.22-4.9-1.6-7.46H74.5zm91.833 0c-.44 2.574-1.01 5.09-1.71 7.532 3.82-.036 7.44-.06 10.86-.092.56-.006 1.1-.015 1.65-.02-.06-2.16-.06-4.324.01-6.497.01-.32.04-.62.06-.93h-10.87zm-90.19 15.666c-.38.002-.77.017-1.15.023.03 2.096.03 4.193-.01 6.286 4.9 2.73 11.77 3.59 19.34 3.7-2.18-2.92-4.09-6.14-5.69-9.61-4.14-.26-8.29-.42-12.48-.39zm101.56.25c-5.42.09-10.82.286-16.44.8-1.17 2.57-2.5 5-3.97 7.28 7.05-.564 14.02-1.207 21.26-1.22-.32-2.283-.62-4.57-.84-6.86zm2.31 15.82c-10.46.342-20.51 1.382-30.93 1.97-4.05 3.613-8.66 6.292-13.72 7.773l3.23-.174c13.82-.03 28.66-1.95 42.8-2.38-.47-2.39-.93-4.79-1.36-7.18zm-105.53.17c-.14 1.626-.32 3.246-.54 4.862 6.93 5.28 16.78 6.59 27.35 6.496 4.47-.04 9.06-.33 13.61-.67 1.79-.1 3.58-.198 5.37-.296-6.7-1.12-12.92-4.107-18.27-8.532-9.24-.563-18.44-1.32-27.51-1.86zm108.86 15.808c-16.97 2.013-35.03 2.11-51.91 3.844-3.62.212-7.23.42-10.81.63-3.43.113-6.86.187-10.3.2-12.8.05-25.61-.753-38.43-3.294-.27 1.693-.52 3.245-.79 4.974 9.24 3.175 18.75 5.072 28.39 6.05 3.46.35 6.92.586 10.4.723 3.28.12 6.54.17 9.79.155 3.247-.015 6.477-.09 9.69-.22 18.24-1.35 36.898-2.54 55.26-5.945-.31-2.342-.77-4.813-1.26-7.117zm1 15.503c-18.21 1.29-36.82 5.836-55.52 5.905-3.19.074-6.37.053-9.54-.087-3.17-.14-6.32-.39-9.46-.8-3.39-.17-6.77-.39-10.15-.66-9.84-.77-19.69-1.92-29.69-3.23.24 2.15 1.03 4.01 1.86 5.7 12.29 4.14 24.82 6 37.51 6.51 3.42.14 6.84.18 10.27.14 3.75-.06 7.47-.21 11.16-.43 16.15-1 32.73-2.97 48.35-5 2.32-2.94 4.3-5.81 5.24-8.02zM72.29 240.805c-.695.943-1.466 2.188-2.116 4.238v.325c11.38 4.227 23.06 6.04 34.805 6.784 3.91.25 7.84.377 11.76.44 3.81.004 7.66.006 11.53-.017 3.85-.024 7.73-.075 11.61-.177 5.08.07 10.2-.15 15.32-.593 3.68-2.003 7.61-4.288 11.98-6.9.21-.128 1.36-1.247 2.95-2.902-12.9 1.54-26.12 2.172-38.59 2.208-3.59.04-7.16.06-10.69.08-3.34-.03-6.69-.11-10.04-.23-12.72-.47-25.5-1.58-38.54-3.24zm12.81 16.143c.674.447 1.338.85 1.986 1.18 3.33 1.705 6.037 1.46 9.623 2.515 2.96.87 6.5 3.365 9.58 3.357 13.83-.035 23.43-1.42 33-4.852l-1.09.034c-3.24.13-6.49.26-9.75.417-3.9.01-7.81 0-11.73-.09-10.59-.22-21.19-.91-31.63-2.57z"/><path fill="#dc4faf" d="M116.406 27.42c-2.935-6.013-4.168-8.062-7.674-13.56-.776-1.217-1.545-2.466-2.624-3.42-1.947-1.72-4.906-2.313-7.48-2.04-2.575.275-4.788 1.337-7.005 2.684-1.638.993-3.427 2.454-4.41 4.104-.61 1.018-.96 2.17-1.456 3.248-1.618 3.507-6.965 8.423-7.3 14.547"/><path fill="#fff" stroke="#231f20" stroke-width=".52" stroke-miterlimit="10" d="M0 0c-.496-.672-1.294-1.107-2.193-1.107-1.505 0-2.725 1.22-2.725 2.724 0 1.505 1.22 2.725 2.725 2.725" stroke-linecap="round" stroke-linejoin="round" transform="matrix(1.19788 0 0 -1.2078 117.52 29.893)"/><path fill="#fff" d="M106.337 25.643c0 1.818-1.46 3.29-3.264 3.29-1.8 0-3.263-1.472-3.263-3.29s1.462-3.29 3.263-3.29c1.803 0 3.264 1.472 3.264 3.29"/><path fill="none" stroke="#231f20" stroke-width=".52" stroke-miterlimit="10" d="M0 0c0-1.505-1.22-2.725-2.725-2.725C-4.23-2.725-5.45-1.505-5.45 0c0 1.505 1.22 2.725 2.725 2.725C-1.22 2.725 0 1.505 0 0z" stroke-linecap="round" stroke-linejoin="round" transform="matrix(1.19788 0 0 -1.2078 106.337 25.643)"/><path fill="#fff" stroke="#231f20" stroke-width=".52" stroke-miterlimit="10" d="M0 0c1.516.023 2.803-1.145 2.91-2.675C3.02-4.26 1.823-5.633.24-5.743c-1.28-.09-2.424.675-2.873 1.808" stroke-linecap="round" stroke-linejoin="round" transform="matrix(1.19788 0 0 -1.2078 85.633 18.698)"/><path fill="none" stroke="#231f20" stroke-width=".52" stroke-miterlimit="10" d="M0 0c-.066 1.423-.69 2.753-1.32 4.03-2.45 4.98-5.15 9.837-8.085 14.547-.633 1.017-1.29 2.04-2.19 2.83-1.626 1.426-3.916 1.937-6.065 1.71-2.15-.226-4.177-1.127-6.028-2.24-1.367-.823-2.694-1.806-3.516-3.17-.507-.845-.8-1.798-1.214-2.69-1.45-3.12-4.376-5.453-5.444-8.724-.377-1.154-.503-2.376-.817-3.55-.38-1.418-1.02-2.748-1.58-4.108-1.73-4.236-2.55-9.06-1.07-13.39 1.49-4.327 5.75-7.89 10.31-7.487 1.6.14 3.12.73 4.69 1.022 1.58.29 3.34.232 4.59-.77" stroke-linecap="round" stroke-linejoin="round" transform="matrix(1.19788 0 0 -1.2078 119.998 36.297)"/><path fill="#fff" d="M102.877 15c0 1.818-1.46 3.292-3.264 3.292-1.802 0-3.263-1.474-3.263-3.292 0-1.817 1.46-3.29 3.263-3.29s3.264 1.473 3.264 3.29"/><path fill="none" stroke="#231f20" stroke-width=".52" stroke-miterlimit="10" d="M0 0c0-1.505-1.22-2.725-2.725-2.725C-4.23-2.725-5.45-1.505-5.45 0c0 1.505 1.22 2.725 2.725 2.725C-1.22 2.725 0 1.505 0 0z" stroke-linecap="round" stroke-linejoin="round" transform="matrix(1.19788 0 0 -1.2078 102.877 15)"/><path fill="#fff" stroke="#231f20" stroke-width=".52" stroke-miterlimit="10" d="M0 0c2.428-2.428 13.06-4.25 13.06-4.25S2.43-6.072 0-8.5c-2.428-2.428-4.25-13.06-4.25-13.06S-6.072-10.928-8.5-8.5c-2.428 2.428-13.06 4.25-13.06 4.25S-10.928-2.428-8.5 0c2.428 2.428 4.25 13.06 4.25 13.06S-2.428 2.428 0 0z" stroke-linecap="round" stroke-linejoin="round" transform="matrix(1.19788 0 0 -1.2078 42.137 69.474)"/><path fill="#fff" stroke="#231f20" stroke-width=".52" stroke-miterlimit="10" d="M0 0c0-1.587-1.287-2.875-2.875-2.875S-5.75-1.587-5.75 0c0 1.588 1.287 2.875 2.875 2.875S0 1.588 0 0z" stroke-linecap="round" stroke-linejoin="round" transform="matrix(1.19788 0 0 -1.2078 167.427 27.254)"/></svg>