<svg xmlns="http://www.w3.org/2000/svg" viewBox="0 0 64 160" width="64" height="160">
  <path fill="#fff" d="M21 8a.635.638 0 0 0-.636.638v2.856H9.046a.635.638 0 0 0-.635.638v4.286a.635.638 0 0 0 .64.638h11.32v2.876a.635.638 0 0 0 .64.638h3.7a.635.638 0 0 0 .64-.638V8.638A.635.638 0 0 0 24.7 8H21zm.635 1.276h2.43v10.018h-2.43v-2.876A.635.638 0 0 0 21 15.78H9.682v-3.01H21a.635.638 0 0 0 .635-.638V9.276zM16.84 22.513c-2.698 0-5.132 1.177-6.82 3.295C8.724 27.438 8 29.483 8 31.548c0 2.363.918 4.675 2.59 6.4 1.648 1.702 3.86 2.633 6.254 2.633 2.37 0 4.587-.9 6.26-2.63 1.648-1.7 2.586-4.03 2.586-6.4s-.94-4.67-2.587-6.38c-1.668-1.72-3.864-2.65-6.26-2.65zm0 1.276c2.07 0 3.902.78 5.345 2.26 1.415 1.46 2.23 3.46 2.23 5.49 0 2.02-.817 4.05-2.23 5.51-1.44 1.48-3.294 2.24-5.345 2.24-2.07 0-3.93-.79-5.345-2.25-1.437-1.49-2.226-3.48-2.226-5.52 0-1.76.63-3.54 1.74-4.94 1.46-1.84 3.49-2.82 5.83-2.82zm0 3.01c-1.423 0-2.723.44-3.68 1.27-.96.82-1.552 2.05-1.552 3.47 0 2.79 2.396 4.75 5.232 4.75 2.824 0 5.232-1.99 5.232-4.75 0-2.78-2.392-4.75-5.232-4.75zm0 1.27c2.283 0 3.96 1.41 3.96 3.47 0 2.03-1.706 3.47-3.96 3.47-2.285 0-3.96-1.39-3.96-3.48 0-1.08.412-1.91 1.107-2.51.694-.6 1.692-.96 2.853-.96zM9.046 53.26a.635.638 0 0 0-.635.636v4.442c0 2.577.02 4.54.87 6.143.81 1.53 2.39 2.39 4.24 2.39 1.28 0 2.4-.37 3.21-1.1.43-.38.75-.86.99-1.41.2.31.28.75.54.98.67.58 1.54.84 2.54.84 1.77 0 3.24-.96 3.96-2.6.6-1.36.6-2.95.6-4.89V53.9a.635.638 0 0 0-.63-.637H9.05zm.636 1.274h14.382v4.132c0 1.93-.047 3.37-.493 4.378a.635.638 0 0 1 0 .002c-.55 1.26-1.44 1.84-2.79 1.84-.79 0-1.3-.175-1.7-.525-.4-.35-.73-.93-.99-1.86a.635.638 0 0 0-1.24.12c-.07.99-.42 1.71-.97 2.2-.54.49-1.32.78-2.36.78-1.48 0-2.52-.59-3.11-1.7-.64-1.21-.71-2.98-.71-5.54v-3.81zm2.56 2.7a.635.638 0 0 0-.634.64v1.494c0 .953.068 1.734.41 2.38.343.646 1.062 1.05 1.865 1.05.87 0 1.628-.343 1.998-.99.37-.647.42-1.416.42-2.372v-1.563a.635.638 0 0 0-.63-.638h-3.42zm6.196 0a.635.638 0 0 0-.635.64v.856c0 .932.043 1.694.357 2.34.315.647 1.03 1.067 1.833 1.067.846 0 1.577-.41 1.894-1.057.317-.648.338-1.39.338-2.282v-.925a.635.638 0 0 0-.635-.638h-3.152zm-5.56 1.277h2.145v.93c0 .89-.1 1.48-.244 1.74-.15.26-.28.35-.9.35-.49 0-.59-.08-.74-.37-.16-.29-.26-.91-.26-1.78v-.85zm6.196 0h1.88v.29c0 .85-.076 1.46-.208 1.72-.132.27-.198.34-.753.34-.488 0-.55-.06-.69-.34-.14-.28-.23-.91-.23-1.78v-.22zM9 70.36a.635.638 0 0 0-.59.638v9.624a.635.638 0 0 0 .636.637h3.5a.635.638 0 0 0 .636-.64v-4.81h1.38v4.5a.635.638 0 0 0 .636.64h3.352a.635.638 0 0 0 .635-.64v-4.5h1.44v4.81a.635.638 0 0 0 .637.63H24.7a.635.638 0 0 0 .634-.64v-9.63a.635.638 0 0 0-.635-.64H9.04a.635.638 0 0 0-.045 0zm.682 1.276h14.382v8.348h-2.167v-4.81a.635.638 0 0 0-.635-.637H18.55a.635.638 0 0 0-.636.638v4.506h-2.08v-4.51a.635.638 0 0 0-.636-.63h-2.65a.635.638 0 0 0-.636.64v4.81h-2.23v-8.35zM9.044 94.09a.635.638 0 0 0-.635.638v4.134a.635.638 0 0 0 .63.638h7.73l.04-.004c-.02.013-.07.034-.08.048l.01-.012-8.08 5.934a.635.638 0 0 0-.26.514v4.11a.635.638 0 0 0 .63.638h15.66a.635.638 0 0 0 .63-.638v-4.11a.635.638 0 0 0-.64-.638h-7.72l-.02.002c.02-.013.06-.034.08-.048l8.04-5.922a.635.638 0 0 0 .26-.512v-4.134a.635.638 0 0 0-.64-.638H9.04zm.638 1.276h14.382v3.17l-7.796 5.744a.635.638 0 0 0-.014.01c.01-.008-.295.187-.743.422-.44.236-1.08.55-1.89.93a.635.638 0 0 0 .35 1.215c1.21-.152 2.22-.24 3.01-.24h7.09v2.836H9.69v-3.15l7.812-5.74a.635.638 0 0 0 .014-.013c0 .002.293-.19.735-.424.44-.235 1.07-.55 1.88-.93a.635.638 0 0 0-.35-1.213c-1.21.153-2.22.24-3.01.24H9.68v-2.857zm-.636 19.755a.635.638 0 0 0-.635.64v4.33a.635.638 0 0 0 .64.64H24.7a.635.638 0 0 0 .634-.64v-4.33a.635.638 0 0 0-.635-.64H9.04zm.636 1.28h14.382v3.06H9.682v-3.06zm7.18 8.05c-5.027 0-8.846 3.66-8.846 8.62 0 1.51.36 2.92 1.05 4.35a.635.638 0 0 0 .57.36H14.3a.635.638 0 0 0 .425-1.11c-1.194-1.07-1.672-1.95-1.672-3.15 0-2.17 1.6-3.49 3.72-3.49 1.194 0 2.167.37 2.837.97.67.61 1.062 1.44 1.062 2.52 0 1.2-.478 2.08-1.674 3.15a.635.638 0 0 0 .425 1.12h4.664a.635.638 0 0 0 .57-.36c.69-1.43 1.05-2.83 1.05-4.34 0-4.95-3.82-8.61-8.845-8.61zm0 1.28c4.43 0 7.575 3.03 7.575 7.34 0 1.19-.327 2.28-.836 3.43h-2.85c.7-.91 1.2-1.87 1.2-2.99 0-1.4-.55-2.63-1.48-3.47-.93-.84-2.22-1.29-3.68-1.29-2.69 0-4.99 1.93-4.99 4.77 0 1.12.49 2.08 1.19 2.99h-2.85c-.51-1.15-.83-2.24-.83-3.43 0-4.31 3.15-7.34 7.58-7.34zm-7.86 15.38a.635.638 0 0 0-.59.64v9.63a.635.638 0 0 0 .634.64h3.5a.635.638 0 0 0 .636-.63v-4.81h1.38v4.51a.635.638 0 0 0 .636.64h3.352a.635.638 0 0 0 .635-.63v-4.5h1.44v4.82a.635.638 0 0 0 .637.64H24.7a.635.638 0 0 0 .634-.64v-9.62a.635.638 0 0 0-.635-.64H9.04a.635.638 0 0 0-.045 0zm.68 1.28h14.382v8.35h-2.167v-4.81a.635.638 0 0 0-.635-.63H18.55a.635.638 0 0 0-.636.64v4.51h-2.08v-4.5a.635.638 0 0 0-.636-.63h-2.65a.635.638 0 0 0-.636.64v4.82h-2.23v-8.35z" style="line-height:normal;text-indent:0;text-align:start;text-decoration-line:none;text-decoration-style:solid;text-decoration-color:#000000;text-transform:none;block-progression:tb;isolation:auto;mix-blend-mode:normal" color="#000" font-family="sans-serif" white-space="normal" overflow="visible" solid-color="#000000"/>
  <path fill="#266" d="M47.502 35.793l-9.154 3.454.894 2.388 9.155-3.452-.895-2.39zm2.77 7.81l-2.07.59.566 2.017-7.336 2.085.69 2.456 7.34-2.08.57 2.02 2.07-.58-1.83-6.49zm-1.218 12.554l.292 1.48 4.688 1.514-.43-2.18-4.55-.81zm3.553 8.396c-.222-.014-.453-.007-.693.02-.48.055-.873.173-1.174.356-.292.19-.526.41-.705.68-.177.27-.313.57-.407.89-.084.33-.16.67-.226 1.01-.063.28-.12.53-.177.72-.055.21-.124.37-.204.51-.07.13-.16.22-.26.29-.1.06-.22.1-.36.12-.24.03-.46-.05-.68-.24-.21-.18-.34-.48-.39-.89-.04-.36 0-.74.13-1.13.12-.39.33-.8.62-1.22l-2.16-.86c-.61 1.13-.84 2.32-.7 3.55.07.59.21 1.11.43 1.56.21.45.48.82.8 1.11.33.29.7.5 1.13.62.43.12.89.16 1.39.1.74-.084 1.32-.347 1.73-.787.42-.43.72-1.08.9-1.94.05-.215.09-.434.12-.656.04-.22.09-.41.14-.597.07-.17.15-.32.25-.432.1-.115.24-.185.41-.204.25-.03.46.05.64.24s.29.45.33.78c.03.26 0 .533-.07.822-.07.29-.2.58-.392.88l2.087.79c.206-.51.34-1.04.41-1.58.08-.54.09-1.05.036-1.533-.06-.52-.19-.98-.39-1.385-.2-.39-.46-.72-.78-.98-.3-.255-.66-.44-1.08-.56-.2-.055-.41-.09-.63-.1zM46.24 84.388l-.16 2.548 5.967.377-6.263 4.327-.16 2.534 9.762.617.16-2.53-5.97-.37 6.265-4.32.16-2.55-9.76-.61zM44.876 99.09l-.41 2.52 9.653 1.58.41-2.518-9.66-1.58zm2.27 8.893c-.354-.016-.704.004-1.05.064-.68.12-1.306.35-1.874.69-.56.35-1.044.788-1.447 1.32-.397.545-.68 1.145-.846 1.8-.08.32-.13.655-.15 1-.03.343-.02.72.02 1.132l.02.27 2.91.74c-.51-.81-.67-1.6-.47-2.39.09-.36.24-.68.45-.96.21-.28.46-.5.76-.68.29-.17.61-.28.97-.33.35-.05.71-.02 1.09.07.36.09.69.24.98.45.28.22.51.47.68.75.17.29.29.6.34.95.05.35.03.72-.06 1.09-.21.84-.74 1.46-1.58 1.85l2.94.75c.27-.36.49-.72.66-1.07.17-.34.31-.7.41-1.08.16-.67.2-1.33.1-2-.09-.67-.3-1.29-.63-1.87-.32-.57-.75-1.07-1.29-1.5-.54-.43-1.17-.73-1.9-.92-.36-.1-.72-.15-1.08-.17zm-6.996 10.772l-1.9 5.25 2.024.74 1.033-2.852 1.584.578-.97 2.7 2.03.74.98-2.69 1.54.56-1.03 2.86 2.03.74 1.9-5.25-9.19-3.35z" style="-inkscape-font-specification:FuturaBT-Bold" font-weight="bold" font-family="Futura"/>
</svg>
