<svg xmlns="http://www.w3.org/2000/svg" width="352" height="80">
  <path fill="#211d1d" d="M155.2 16c-7.06 0-12.14 4.44-12.14 9.87 0 2.6 1.3 5.2 3.52 7.83-2.94 1.54-5.25 3.15-6.8 5-1.66 2.03-2.5 4.34-2.5 7.02 0 6.52 5.43 11.56 13.2 11.56 5.24 0 9.47-1.53 13.4-4.78l3.18 3.5a.72.68 0 0 0 .55.24h12.5a.72.68 0 0 0 .5-1.16l-8.4-8.28c1.8-1.47 3.5-3.12 5.2-5.08a.72.68 0 0 0 0-.9l-5.8-5.75a.72.68 0 0 0-1 .03c-1.5 1.73-3.3 3.34-5.2 4.88l-3.8-3.75c4.4-2.82 6.7-6.1 6.7-9.93 0-3-1.1-5.63-3.4-7.45-2.2-1.83-5.4-2.85-9.4-2.85zm0 1.37c3.77 0 6.62.94 8.5 2.5 1.9 1.57 2.9 3.76 2.9 6.43 0 3.5-2.1 6.5-6.7 9.27a.72.68 0 0 0-.14 1.05l4.85 4.8a.72.68 0 0 0 1 .06c2-1.55 3.7-3.23 5.3-4.96l4.9 4.76c-1.7 1.9-3.4 3.63-5.1 5a.72.68 0 0 0 0 1l7.8 7.6H168l-3.43-3.77a.72.68 0 0 0-1.03 0c-3.9 3.4-7.8 4.9-13 4.9-7.13 0-11.75-4.3-11.75-10.2 0-2.4.7-4.3 2.2-6.1 1.4-1.8 3.8-3.4 7-5a.72.68 0 0 0 .2-1c-2.5-2.7-3.7-5.2-3.7-7.6 0-4.6 4.3-8.5 10.7-8.5zm110.07 1.8c-1.33 0-2.54.2-3.62.56-1.06.38-1.97.9-2.72 1.6-.73.68-1.3 1.5-1.73 2.46-.4.9-.6 2-.6 3.1 0 1.2.2 2.1.57 2.9.4.7.9 1.3 1.53 1.8.64.5 1.36.9 2.15 1.2.82.3 1.65.5 2.5.8.7.2 1.3.4 1.78.6.5.2.92.4 1.23.6.3.2.53.4.67.7.13.2.2.5.2.9 0 .6-.27 1.1-.8 1.5-.5.5-1.3.7-2.36.7-.93 0-1.87-.2-2.82-.6-.95-.4-1.9-1-2.88-1.8l-2.8 4.9c2.7 1.7 5.64 2.6 8.8 2.6 1.53 0 2.9-.2 4.08-.6 1.22-.4 2.24-.9 3.05-1.6.84-.7 1.47-1.6 1.9-2.6.44-1 .66-2.1.66-3.3 0-1.8-.5-3.3-1.5-4.4-.97-1.1-2.52-2-4.64-2.7l-1.63-.4c-.6-.17-1.1-.3-1.5-.5-.5-.2-.8-.48-1.1-.75-.3-.24-.4-.6-.4-1 0-.6.2-1.1.8-1.46.5-.3 1.2-.5 2-.5.6 0 1.3.1 2 .4.7.23 1.4.63 2.1 1.2l2.6-4.8c-1.3-.6-2.6-1.1-3.9-1.4-1.4-.38-2.7-.5-3.9-.5zm26.74 0c-2 0-3.9.32-5.6.97-1.6.63-3.1 1.5-4.3 2.64-1.2 1.13-2.1 2.46-2.8 4-.7 1.5-1 3.14-1 4.9 0 1.76.4 3.4 1.1 4.93.7 1.6 1.7 2.9 2.9 4 1.2 1.2 2.7 2.1 4.4 2.7 1.7.7 3.6 1 5.6 1 2 0 3.9-.3 5.6-.9 1.7-.6 3.2-1.5 4.4-2.7 1.3-1.1 2.2-2.4 2.9-3.9.7-1.5 1-3.1 1-4.9 0-1.7-.3-3.4-1-4.9-.7-1.5-1.6-2.9-2.9-4-1.2-1.1-2.6-2-4.3-2.6-1.7-.6-3.6-.9-5.6-.9zm-276 .66v23.7h14.3V38.3h-7.8v-4.08h7.3v-5.2h-7.3v-3.98h7.8v-5.2H16zm25.3 0L37 43.53h6.47l2.16-13.64 5.6 13.6h2.6l5.9-13.7 2.17 13.7h6.44L64.1 19.8h-6.43L52.7 32.47l-5.02-12.63h-6.43zm30.9 0v23.7h6.5v-23.7h-6.5zm15.2 0v23.7h14.3V38.3h-7.8V19.84h-6.5zm16.1 0l9.2 12.32v11.38h6.5V32.15l9.2-12.32h-7.8L116 26.3l-4.64-6.47h-7.77zm95.2 0l-4.2 23.7h6.5l2-13.63 5.6 13.6h2.6l5.9-13.64 2.2 13.63h6.5l-4.2-23.7H215l-5 12.6-5.02-12.7h-6.43zm38 0l-9.5 23.7h6.9l1.5-4.12h9.3l1.5 4.2h7l-9.5-23.7h-7.1zm74.5 0v23.7h6.5v-14.5l12 14.5h6.4v-23.7h-6.4v14.5l-12-14.5h-6.5zm-155 2.47c-1.3 0-2.4.3-3.3 1.1-.8.7-1.2 1.8-1.2 3 0 1.1.7 2.5 1.7 3.7l1.6 1.83a.72.68 0 0 0 .6.24.72.68 0 0 0 .5-.16l1.4-1c2-1.5 3.2-3.2 3.2-4.9 0-1.1-.4-2-1.2-2.7-.7-.7-1.8-1.1-3-1.1zm0 1.3c.9 0 1.6.26 2.1.7.5.42.8 1 .8 1.8 0 1.05-.9 2.43-2.7 3.83l-.7.6-1.2-1.32c-.8-.9-1.3-2.4-1.3-2.8 0-.9.3-1.5.8-2s1.2-.7 2.3-.7zm135.9 1.5c1 0 1.9.16 2.7.5.9.3 1.6.76 2.3 1.34.7.58 1.2 1.27 1.6 2.07.4.8.6 1.7.6 2.6 0 1-.1 1.9-.5 2.7-.4.8-.9 1.5-1.5 2.1-.6.6-1.4 1.1-2.2 1.4-.8.3-1.7.5-2.7.5-.9 0-1.8-.1-2.7-.4-.8-.3-1.6-.8-2.2-1.4-.6-.6-1.1-1.3-1.5-2.1-.4-.8-.6-1.6-.6-2.6 0-.9.2-1.8.6-2.6.4-.8.9-1.5 1.5-2.1.7-.5 1.4-1 2.3-1.3.9-.3 1.8-.5 2.7-.5zm-51.9 1.7l2.9 7.9h-5.8l3-7.9zm-88.5 11.9a.72.68 0 0 0-.4.14c-2.5 2.12-4 4-4 6.14 0 2.6 2.3 4.72 5.2 4.72 2.2 0 4.3-1.05 6.5-2.96a.72.68 0 0 0 .1-.97l-6.6-6.9a.72.68 0 0 0-.5-.2zm.1 1.66l5.5 5.78c-1.8 1.43-3.4 2.2-4.9 2.2-2.2 0-3.6-1.47-3.6-3.36 0-1.43 1.1-2.86 3.1-4.63zM37.6 51.9v9.36h2.57V57.4h3.7v3.86h2.57V51.9h-2.57v3.6h-3.7v-3.6H37.6zm17.25 0l-3.76 9.36h2.7l.6-1.63H58l.6 1.63h2.73L57.6 51.9h-2.8zm10.56 0v9.36H68v-5.72l4.74 5.72h2.55V51.9h-2.6v5.72L68 51.9h-2.6zm15.1 0v9.36h2.6v-5.72l4.8 5.72h2.6V51.9h-2.6v5.72l-4.8-5.72h-2.6zm17.9 0l-3.7 9.36h2.8l.6-1.63h3.7l.6 1.63h2.7l-3.7-9.36h-2.8zm133.8 2.22c-.5 0-1 .08-1.4.23-.4.15-.7.36-1 .63-.3.26-.5.6-.7.97-.1.37-.2.8-.2 1.25 0 .46.1.85.3 1.15.2.3.4.55.6.75.3.2.5.36.9.48.3.12.7.23 1 .33l.7.3c.2.1.4.2.5.3l.3.3c.1.1.1.2.1.4 0 .3-.1.5-.3.6-.2.2-.5.3-.9.3s-.7-.1-1.1-.2c-.4-.1-.8-.4-1.1-.7l-1.3 1.8c1.1.7 2.3 1.1 3.5 1.1.6 0 1.2 0 1.6-.2.5-.1.9-.3 1.2-.6.4-.3.6-.6.8-1 .2-.4.3-.8.3-1.3 0-.7-.2-1.3-.6-1.7-.4-.4-1-.8-1.9-1l-.7-.2-.6-.2c-.2-.1-.3-.1-.4-.3-.1-.1-.2-.2-.2-.4s.1-.4.3-.5c.2-.1.5-.2.8-.2.3 0 .5.1.8.2.3.1.5.3.8.5l1-1.9c-.5-.2-1-.4-1.52-.5-.5-.1-1-.2-1.5-.2zm7.3.26v2.06h2.1v7.3h2.6v-7.3h2.1v-2.06h-6.7zm12.1 0v9.36h2.6v-3.6l2.5 3.6h3.2l-3.1-3.83c.7-.1 1.3-.4 1.6-.9.4-.4.6-1 .6-1.7 0-.4-.1-.8-.2-1.1-.1-.3-.3-.6-.6-.9-.2-.2-.6-.4-1-.6-.4-.1-.9-.2-1.4-.2h-4zm15.2 0l-3.8 9.36h2.8l.6-1.63h3.6l.6 1.7h2.8l-3.7-9.3h-2.8zm10.6 0v9.36h2.6v-5.72l4.8 5.72h2.6v-9.36h-2.5v5.72l-4.8-5.72h-2.5zm15.1 0v9.36h3.8c.7 0 1.3-.13 1.9-.4.6-.24 1.1-.58 1.6-1 .5-.44.8-.94 1.1-1.5.3-.57.4-1.17.4-1.78 0-.62-.1-1.2-.3-1.77-.2-.6-.6-1.1-1-1.5-.5-.5-1-.8-1.6-1.1-.6-.3-1.2-.4-1.9-.4h-3.8zm-236 .3l1.2 3.1h-2.3l1.2-3.1zm43.6 0l1.2 3.1H99l1.12-3.1zm154.3 1.58h.5c.6 0 .9.1 1.2.3.3.2.4.48.4.85 0 .4-.1.7-.4.9-.2.2-.6.3-1.1.3h-.5v-2.3zm40.8.18h.6c.5 0 .9.07 1.2.2.4.13.7.32.9.55.3.2.5.5.6.8.2.3.2.6.2 1s0 .7-.2 1c-.1.3-.3.6-.5.8-.2.2-.5.4-.8.5-.4.1-.8.2-1.2.2h-.6v-5.2zm-26.8.7l1.2 3.13H267l1.16-3.12z" style="-inkscape-font-specification:FuturaBT-Bold" font-weight="bold" font-family="Futura"/>
</svg>
